<svg width="16" height="17" viewBox="0 0 16 17" fill="none" xmlns="http://www.w3.org/2000/svg">
<g clip-path="url(#clip0_830_4360)">
<path d="M11.9838 8.49997C11.9838 8.84514 11.7039 9.12497 11.3588 9.12497H8.625V11.8587C8.625 12.2039 8.34518 12.4837 8 12.4837C7.65482 12.4837 7.375 12.2039 7.375 11.8587V9.12497L4.64124 9.12496C4.29607 9.12496 4.01624 8.84514 4.01624 8.49997C4.01624 8.15479 4.29606 7.87497 4.64124 7.87497H7.375V5.14121C7.375 4.79603 7.65482 4.51621 8 4.51621C8.34518 4.51621 8.625 4.79603 8.625 5.14121V7.87497H11.3588C11.7039 7.87497 11.9838 8.15479 11.9838 8.49997Z" fill="#1C1F21" fill-opacity="0.6"/>
<path fill-rule="evenodd" clip-rule="evenodd" d="M8 0.5C3.58172 0.5 0 4.08172 0 8.5C0 12.9183 3.58172 16.5 8 16.5C12.4183 16.5 16 12.9183 16 8.5C16 4.08172 12.4183 0.5 8 0.5ZM1.25 8.5C1.25 4.77208 4.27208 1.75 8 1.75C11.7279 1.75 14.75 4.77208 14.75 8.5C14.75 12.2279 11.7279 15.25 8 15.25C4.27208 15.25 1.25 12.2279 1.25 8.5Z" fill="#1C1F21" fill-opacity="0.6"/>
</g>
<defs>
<clipPath id="clip0_830_4360">
<rect width="16" height="16" fill="white" transform="translate(0 0.5)"/>
</clipPath>
</defs>
</svg>
