<svg width="24" height="24" viewBox="0 0 24 24" fill="none" xmlns="http://www.w3.org/2000/svg">
<path d="M16.5467 6.95613C16.5421 6.94684 16.5498 6.93623 16.56 6.93778C17.0074 7.00547 17.4764 7.15855 18.0081 7.43859C18.3108 7.59803 18.5932 7.81235 18.8629 8.08155C19.1143 8.33252 19.3883 8.88161 19.1123 9.10525C18.8958 9.28069 18.6576 9.49999 18.3762 9.80701C18.0947 10.114 17.8782 10.4868 17.6617 10.9693C17.4452 11.4517 17.3586 12 17.3586 12.636C17.3586 13.3816 17.4885 13.9956 17.7483 14.5219C18.0081 15.0482 18.3112 15.443 18.6576 15.7719C19.0041 16.1009 19.3072 16.3202 19.567 16.4517C19.8506 16.5954 19.9493 16.8637 19.8407 17.1625C19.7811 17.3263 19.7177 17.4978 19.6752 17.614C19.4587 18.2061 19.134 18.8202 18.6576 19.5219C18.2463 20.136 17.7916 20.6842 17.3153 21.2105C16.839 21.7368 16.2544 21.9781 15.6049 21.9781C15.1502 21.9781 14.7821 21.9123 14.5007 21.7807C14.2192 21.6491 13.9161 21.5175 13.613 21.386C13.3099 21.2544 12.8985 21.1886 12.3789 21.1886C11.8593 21.1886 11.4696 21.2544 11.1231 21.386C10.7767 21.5175 10.4736 21.6491 10.1705 21.8026C9.86739 21.9561 9.52097 22 9.10961 22C8.48173 22 7.94046 21.7588 7.48579 21.2544C7.03112 20.75 6.53315 20.1579 6.05683 19.4781C5.49391 18.6447 4.99594 17.6579 4.60622 16.4737C4.21651 15.2895 4 14.0833 4 12.8772C4 11.5833 4.23816 10.5088 4.71448 9.60964C5.1908 8.71052 5.81867 8.07455 6.57645 7.61403C7.33424 7.1535 8.11367 6.9342 8.9364 6.9342C9.36942 6.9342 9.78079 6.99999 10.1488 7.1535C10.5169 7.30701 10.885 7.43859 11.2314 7.5921C11.5778 7.7456 11.8593 7.81139 12.1407 7.81139C12.4222 7.81139 12.7037 7.72367 13.0501 7.57017C13.3965 7.41666 13.7862 7.26315 14.2192 7.10964C14.6522 6.95613 15.1069 6.89034 15.6049 6.89034C15.7962 6.89034 16.092 6.91149 16.5332 6.97456C16.5434 6.97603 16.5513 6.96542 16.5467 6.95613ZM13.6455 6.19955C13.6383 6.20682 13.63 6.21298 13.621 6.21772C13.1279 6.47607 12.6562 6.60525 12.2057 6.60525C12.1632 6.60525 12.1207 6.60525 12.0782 6.60267C11.9996 6.59787 11.9489 6.52659 11.9242 6.45175C11.9026 6.38596 11.9242 6.32017 11.9242 6.23245C11.9242 5.72806 12.0325 5.22367 12.249 4.74122C12.4655 4.25876 12.7253 3.86403 13.0068 3.53508C13.3532 3.09648 13.8078 2.7456 14.3491 2.46052C14.7443 2.25237 15.128 2.11436 15.4916 2.0465C15.7164 2.00456 15.9296 2.16609 15.9296 2.39473C15.9296 2.89911 15.843 3.4035 15.6482 3.88596C15.4533 4.36841 15.1935 4.80701 14.8904 5.17982C14.5686 5.57095 14.1618 5.91901 13.6699 6.18135C13.6609 6.18616 13.6526 6.19229 13.6455 6.19955Z" fill="#F36A77"/>
</svg>
