<svg width="48" height="48" viewBox="0 0 48 48" fill="none" xmlns="http://www.w3.org/2000/svg">
<path d="M42.9775 3.02832L43.1846 3.03418C45.3101 3.14346 47 4.90137 47 7.0537V11.623C47 13.2286 46.0599 14.6147 44.7002 15.2607V32.8983C44.7001 39.2495 39.5513 44.3982 33.2002 44.3983H14.7998C8.44868 44.3982 3.29987 39.2495 3.2998 32.8983V15.2607C1.94012 14.6147 1 13.2285 1 11.623V7.02538C1.00003 4.80152 2.80356 2.99872 5.02734 3L42.9775 3.02832ZM19.4004 20.248C18.4477 20.248 17.6748 21.0209 17.6748 21.9736C17.675 22.9261 18.4478 23.6982 19.4004 23.6982H28.5996C29.5522 23.6982 30.325 22.9261 30.3252 21.9736C30.3252 21.0209 29.5523 20.248 28.5996 20.248H19.4004Z" fill="#DEDEDE" fill-opacity="0.16"/>
<path d="M13.1621 42.2577C13.6927 42.3498 14.24 42.3983 14.7998 42.3983V44.3983L14.208 44.3837C13.7372 44.3598 13.2745 44.3033 12.8203 44.2245L13.1621 42.2577ZM16.8252 42.3983V44.3983H14.7998V42.3983H16.8252ZM22.958 42.3983V44.3983H18.9082V42.3983H22.958ZM29.0918 42.3983V44.3983H25.042V42.3983H29.0918ZM33.2002 42.3983V44.3983H31.1748V42.3983H33.2002ZM35.1787 44.2245C34.7248 44.3032 34.2625 44.3598 33.792 44.3837L33.2002 44.3983V42.3983C33.76 42.3983 34.3073 42.3498 34.8379 42.2577L35.1787 44.2245ZM8.70605 40.1864C9.54095 40.8854 10.4964 41.443 11.5352 41.8231L10.8477 43.7001C9.58778 43.239 8.43133 42.5639 7.42188 41.7186L8.70605 40.1864ZM40.5771 41.7186C39.5676 42.5639 38.4113 43.239 37.1514 43.7001L36.8086 42.7616L36.4648 41.8231C37.5036 41.443 38.4591 40.8854 39.2939 40.1864L40.5771 41.7186ZM5.875 36.163C6.25515 37.2018 6.81276 38.1572 7.51172 38.9921L5.97852 40.2743C5.13359 39.2649 4.45796 38.1092 3.99707 36.8495L5.875 36.163ZM43.0635 36.5067L44.002 36.8495C43.541 38.1092 42.8655 39.2649 42.0205 40.2743L40.4883 38.9921C41.1872 38.1572 41.7449 37.2018 42.125 36.163L43.0635 36.5067ZM3.2998 32.8983V30.9569H5.2998V32.8983L5.30859 33.3153C5.32646 33.7304 5.37137 34.138 5.44043 34.536L3.47266 34.8769C3.39392 34.423 3.33831 33.9606 3.31445 33.4901L3.2998 32.8983ZM44.6855 33.4901C44.6617 33.9606 44.6051 34.4229 44.5264 34.8769L42.5596 34.536C42.6286 34.138 42.6735 33.7304 42.6914 33.3153L42.7002 32.8983V30.9569H44.7002V32.8983L44.6855 33.4901ZM5.2998 25.0781V28.9599H3.2998V25.0781H5.2998ZM44.7002 25.0781V28.9599H42.7002V25.0781H44.7002ZM18.5449 23.4697C18.749 23.5865 18.9783 23.6644 19.2236 23.6894L19.4004 23.6982H20.9189V25.6982H19.4004C18.732 25.6982 18.099 25.5202 17.5527 25.2079L18.5449 23.4716V23.4697ZM25.5186 23.6982V25.6982H22.4814V23.6982H25.5186ZM29.4551 23.4716L30.4473 25.2079C29.901 25.5202 29.268 25.6982 28.5996 25.6982H27.0811V23.6982H28.5996C28.9109 23.6982 29.2019 23.6139 29.4541 23.4697L29.4551 23.4716ZM16.166 20.125L17.9014 21.1181C17.757 21.3704 17.6748 21.6622 17.6748 21.9736C17.6749 22.2847 17.7581 22.5761 17.9023 22.8281L17.9014 22.829L16.166 23.8222C15.8923 23.3441 15.722 22.7995 15.6836 22.2226L15.6748 21.9736L15.6826 21.7246C15.721 21.1476 15.8924 20.6031 16.166 20.125ZM30.3252 21.9736C30.3252 21.6621 30.2412 21.3704 30.0967 21.1181H30.0986L31.834 20.125C32.1467 20.6714 32.3252 21.3046 32.3252 21.9736L32.3164 22.2226C32.278 22.7995 32.1077 23.3441 31.834 23.8222L30.0986 22.829L30.0967 22.8281C30.2134 22.6243 30.2914 22.3953 30.3164 22.1503L30.3252 21.9736ZM5.2998 19.1982V23.081H3.2998V19.1982H5.2998ZM44.7002 19.1982V23.081H42.7002V19.1982H44.7002ZM19.4004 20.248C19.089 20.248 18.7972 20.3311 18.5449 20.4755L17.5518 18.7392C18.0982 18.4265 18.7314 18.248 19.4004 18.248V20.248ZM28.5996 18.248C29.2686 18.248 29.9018 18.4265 30.4482 18.7392L29.4551 20.4746L29.4541 20.4755C29.2504 20.359 29.0212 20.2817 28.7764 20.2568L28.5996 20.248V18.248ZM28.5996 18.248V20.248H27.0811V18.248H28.5996ZM25.5186 18.248V20.248H22.4814V18.248H25.5186ZM20.9189 18.248V20.248H19.4004V18.248H20.9189ZM3.2998 15.2607C2.84442 15.0443 2.43741 14.7437 2.0957 14.3808L3.55078 13.0117C3.72395 13.1954 3.93027 13.3458 4.1582 13.4541L5.2998 13.997V17.2021H3.2998V15.2607ZM44.7002 17.2021H42.7002V13.997L43.8418 13.4541C44.0697 13.3458 44.2761 13.1954 44.4492 13.0117L45.9033 14.3808C45.5617 14.7434 45.1554 15.0444 44.7002 15.2607V17.2021ZM1 11.623V10.1045H3V11.623C3 11.8865 3.04954 12.1337 3.1377 12.3593L1.27539 13.0869C1.13248 12.7211 1.04064 12.3296 1.01074 11.9209L1 11.623ZM46.9893 11.9209C46.9593 12.3297 46.8666 12.721 46.7236 13.0869L44.8623 12.3593C44.9505 12.1337 45 11.8866 45 11.623V10.1142H47V11.623L46.9893 11.9209ZM47 8.56248H45V7.0537C45 6.69755 44.9094 6.3686 44.752 6.08202L46.5039 5.11816C46.8197 5.69256 47 6.35199 47 7.0537V8.56248ZM1 7.02538C1.00001 6.29899 1.19266 5.61764 1.5293 5.02929L2.39746 5.52538L3.26465 6.02245C3.09651 6.31638 3.00001 6.65665 3 7.02538V8.54393H1V7.02538ZM43.1846 3.03418C43.8814 3.07001 44.5309 3.28387 45.0898 3.62988L44.0381 5.33007C43.7609 5.15841 43.4405 5.05205 43.0938 5.03222L43.0596 5.03124L43.1152 3.03223L43.1846 3.03418ZM6.81641 3.00098V5.00097L5.02539 4.99999C4.65698 4.99992 4.31722 5.09672 4.02344 5.26464L3.03027 3.5293C3.61901 3.19257 4.30053 2.99958 5.02734 3L6.81641 3.00098ZM42.9775 3.02832L43.0459 3.0293L42.9893 5.02929L42.9541 5.02734H41.1855L41.1875 3.02734L42.9775 3.02832ZM39.3457 3.02539V4.02539L39.3447 4.02441V5.02539L35.7646 5.02246V3.02246L39.3457 3.02539ZM33.9238 3.02148L33.9229 5.02148L30.3428 5.01855L30.3438 3.01856L33.9238 3.02148ZM28.5029 3.0166V4.01758L28.502 4.0166V5.01757L24.9219 5.01464L24.9229 4.01367L24.9219 3.01465L28.5029 3.0166ZM23.082 3.0127L23.0801 5.01367L19.5 5.01074L19.501 3.01074L23.082 3.0127ZM17.6602 3.00879L17.6592 5.00976L14.0791 5.00683L14.0801 3.00586L17.6602 3.00879ZM12.2393 3.00488L12.2373 5.00585L8.65723 5.00292L8.65918 3.00293L12.2393 3.00488Z" fill="#BBBBBB" fill-opacity="0.55"/>
<path d="M7.69824 14V16H6L6 14H7.69824ZM12.8408 14V16L9.44434 16V14L12.8408 14ZM17.9834 14V16L14.5879 16V14L17.9834 14ZM23.127 14V16H19.7305V14H23.127ZM28.2695 14V16H24.873V14H28.2695ZM33.4121 14V16L30.0166 16V14L33.4121 14ZM38.5557 14V16H35.1592V14H38.5557ZM42 14V16H40.3018V14H42Z" fill="#BBBBBB" fill-opacity="0.55"/>
</svg>
