<svg width="24" height="24" viewBox="0 0 24 24" fill="none" xmlns="http://www.w3.org/2000/svg">
<path d="M9.99994 10.5C9.58573 10.5 9.24994 10.8358 9.24994 11.25C9.24994 11.6642 9.58573 12 9.99994 12H13.9999C14.4141 12 14.7499 11.6642 14.7499 11.25C14.7499 10.8358 14.4141 10.5 13.9999 10.5H9.99994Z" fill="#1C1F21" fill-opacity="0.84"/>
<path fill-rule="evenodd" clip-rule="evenodd" d="M2 4.75098C2 3.78396 2.78431 3.00025 3.75132 3.00098L20.2513 3.01341C21.2173 3.01414 22 3.79743 22 4.76341V6.75022C22 7.44832 21.5912 8.05095 21 8.33181V16C21 18.7614 18.7614 21 16 21H8C5.23857 21 3 18.7614 3 16V8.33181C2.40876 8.05095 2 7.44832 2 6.75022V4.75098ZM4.5 8.50022H19.5V16C19.5 17.933 17.933 19.5 16 19.5H8C6.067 19.5 4.5 17.933 4.5 16V8.50022ZM3.75019 4.50098C3.61204 4.50087 3.5 4.61283 3.5 4.75098V6.75022C3.5 6.88829 3.61193 7.00022 3.75 7.00022H20.25C20.3881 7.00022 20.5 6.88829 20.5 6.75022V4.76341C20.5 4.62541 20.3882 4.51352 20.2502 4.51341L3.75019 4.50098Z" fill="#1C1F21" fill-opacity="0.84"/>
</svg>
