<svg width="24" height="24" viewBox="0 0 24 24" fill="none" xmlns="http://www.w3.org/2000/svg">
<path fill-rule="evenodd" clip-rule="evenodd" d="M16.9498 7.05026C16.7211 6.82162 16.3717 6.76525 16.0827 6.91041C15.865 7.02008 15.6477 7.13071 15.4307 7.24184C15.0324 7.44581 14.4872 7.72743 13.9003 8.03775C12.7547 8.6435 11.3983 9.38555 10.6919 9.86887C10.5286 9.96929 10.3743 10.0902 10.2328 10.2317L10.2295 10.235C10.0889 10.376 9.96868 10.5296 9.86876 10.6921C9.38541 11.3985 8.64338 12.7549 8.03766 13.9005C7.65498 14.6242 7.27793 15.3512 6.91041 16.0827C6.76525 16.3717 6.82161 16.7211 7.05026 16.9498C7.2789 17.1784 7.62834 17.2348 7.91727 17.0896C8.64822 16.7214 9.37549 16.3452 10.099 15.9626C11.2447 15.3568 12.6014 14.6147 13.3079 14.1313C13.4715 14.0307 13.626 13.9095 13.7678 13.7678C13.9095 13.6261 14.0306 13.4716 14.1312 13.308C14.6146 12.6016 15.3567 11.2449 15.9625 10.0992C16.2728 9.51239 16.5543 8.96734 16.7583 8.56913C16.8692 8.35246 16.9797 8.13553 17.0892 7.91813C17.2343 7.6292 17.1784 7.2789 16.9498 7.05026ZM12.7071 11.2929C12.5484 11.1342 12.3491 11.0398 12.1423 11.0101C11.844 10.9675 11.5302 11.0597 11.2992 11.2867L11.2929 11.2929L11.2867 11.2991C11.052 11.5379 10.9614 11.8652 11.0149 12.1723C11.0447 12.3434 11.1192 12.5081 11.238 12.6477C11.3742 12.8076 11.5598 12.9225 11.7641 12.9719C12.0917 13.0511 12.4514 12.9628 12.7071 12.7071C12.9534 12.4608 13.0444 12.1179 12.98 11.8003C12.9422 11.6143 12.8511 11.4369 12.7071 11.2929Z" fill="#1C1F21" fill-opacity="0.84"/>
<path fill-rule="evenodd" clip-rule="evenodd" d="M12 2C6.47715 2 2 6.47715 2 12C2 17.5228 6.47715 22 12 22C17.5228 22 22 17.5228 22 12C22 6.47715 17.5228 2 12 2ZM3.5 12C3.5 7.30558 7.30558 3.5 12 3.5C16.6944 3.5 20.5 7.30558 20.5 12C20.5 16.6944 16.6944 20.5 12 20.5C7.30558 20.5 3.5 16.6944 3.5 12Z" fill="#1C1F21" fill-opacity="0.84"/>
</svg>
