<svg width="24" height="24" viewBox="0 0 24 24" fill="none"
    xmlns="http://www.w3.org/2000/svg">
    <path fill-rule="evenodd" clip-rule="evenodd"
        d="M6.5 2C4.01472 2 2 4.01472 2 6.5V16.5C2 18.9853 4.01472 21 6.5 21C8.98528 21 11 18.9853 11 16.5V13.5C11 12.9477 11.4477 12.5 12 12.5C12.5523 12.5 13 12.9477 13 13.5V16.5C13 18.9853 15.0147 21 17.5 21C19.9853 21 22 18.9853 22 16.5V6.5C22 4.01472 19.9853 2 17.5 2C15.1115 2 13.1576 3.86092 13.0091 6.21201C12.7004 6.0757 12.3591 6 12 6C11.6409 6 11.2996 6.0757 10.9909 6.21201C10.8424 3.86092 8.88854 2 6.5 2ZM20.5 13.1458V6.5C20.5 4.84315 19.1569 3.5 17.5 3.5C15.8431 3.5 14.5 4.84315 14.5 6.5V13.1458C15.2961 12.4333 16.3475 12 17.5 12C18.6525 12 19.7039 12.4333 20.5 13.1458ZM14.5 16.5C14.5 14.8431 15.8431 13.5 17.5 13.5C19.1569 13.5 20.5 14.8431 20.5 16.5C20.5 18.1569 19.1569 19.5 17.5 19.5C15.8431 19.5 14.5 18.1569 14.5 16.5ZM12 11C11.6444 11 11.3062 11.0742 11 11.208V8.5C11 7.94772 11.4477 7.5 12 7.5C12.5523 7.5 13 7.94772 13 8.5V11.208C12.6938 11.0742 12.3556 11 12 11ZM9.5 6.5C9.5 4.84315 8.15685 3.5 6.5 3.5C4.84315 3.5 3.5 4.84315 3.5 6.5V13.1458C4.29613 12.4333 5.34747 12 6.5 12C7.65253 12 8.70387 12.4333 9.5 13.1458V6.5ZM3.5 16.5C3.5 14.8431 4.84315 13.5 6.5 13.5C8.15685 13.5 9.5 14.8431 9.5 16.5C9.5 18.1569 8.15685 19.5 6.5 19.5C4.84315 19.5 3.5 18.1569 3.5 16.5Z"
        fill="#1C1F21" fill-opacity="0.84" />
</svg>