<svg width="25" height="24" viewBox="0 0 25 24" fill="none" xmlns="http://www.w3.org/2000/svg">
<path fill-rule="evenodd" clip-rule="evenodd" d="M7.51554 3.01321C4.74806 3.0046 2.5 5.24569 2.5 8.01319V15.9999C2.5 18.7614 4.73858 20.9999 7.5 20.9999H17.5C20.2614 20.9999 22.5 18.7614 22.5 15.9999V8.04427C22.5 5.28892 20.2709 3.05286 17.5155 3.0443L7.51554 3.01321ZM5.37095 5.23499C5.96357 4.78015 6.70583 4.5107 7.51088 4.5132L17.5109 4.54429C18.2995 4.54674 19.0265 4.80986 19.6105 5.25192L14.8581 9.58494C13.522 10.8031 11.478 10.8031 10.1419 9.58494L5.37095 5.23499ZM4.40257 6.38195C4.14553 6.869 4 7.42405 4 8.01319V15.9999C4 17.9329 5.567 19.4999 7.5 19.4999H17.5C19.433 19.4999 21 17.9329 21 15.9999V8.04427C21 7.44683 20.8503 6.88427 20.5863 6.39212L15.8688 10.6934C13.9601 12.4337 11.0399 12.4337 9.13123 10.6934L4.40257 6.38195Z" fill="#F36A77"/>
</svg>
