<svg width="24" height="24" viewBox="0 0 24 24" fill="none" xmlns="http://www.w3.org/2000/svg">
<path fill-rule="evenodd" clip-rule="evenodd" d="M9.94148 3.28365C10.7881 1.58481 13.2119 1.58482 14.0586 3.28365L15.6977 6.57275C15.8148 6.80778 16.0398 6.97036 16.2997 7.00777L19.9399 7.5316C21.8334 7.80407 22.586 10.1343 21.2097 11.4629L18.5949 13.9871C18.4042 14.1712 18.317 14.4379 18.3623 14.6991L18.9822 18.2784C19.3071 20.1543 17.3424 21.5901 15.6538 20.711L12.3695 19.001C12.1379 18.8804 11.8621 18.8804 11.6306 19.001L8.34627 20.711C6.65763 21.5901 4.69297 20.1543 5.01785 18.2784L5.63774 14.6991C5.68299 14.4379 5.59585 14.1712 5.4051 13.9871L2.79032 11.4629C1.41401 10.1343 2.16668 7.80407 4.06013 7.5316L7.7003 7.00777C7.96022 6.97036 8.18523 6.80778 8.30236 6.57275L9.94148 3.28365ZM12.716 3.9527C12.4216 3.3618 11.5785 3.3618 11.284 3.9527L9.64489 7.24179C9.30815 7.91751 8.66123 8.38494 7.91395 8.49247L4.27378 9.01631C3.61519 9.11108 3.35339 9.9216 3.83211 10.3837L6.44688 12.9079C6.99532 13.4373 7.24582 14.204 7.11574 14.9551L6.49585 18.5344C6.38285 19.1869 7.06621 19.6863 7.65356 19.3805L10.9379 17.6705C11.6036 17.3239 12.3965 17.3239 13.0622 17.6705L16.3465 19.3805C16.9338 19.6863 17.6172 19.1869 17.5042 18.5344L16.8843 14.9551C16.7542 14.204 17.0047 13.4373 17.5532 12.9079L20.1679 10.3837C20.6466 9.9216 20.3848 9.11108 19.7263 9.01631L16.0861 8.49247C15.3388 8.38494 14.6919 7.91751 14.3551 7.24179L12.716 3.9527Z" fill="#1C1F21" fill-opacity="0.84"/>
</svg>
