<svg width="48" height="48" viewBox="0 0 48 48" fill="none" xmlns="http://www.w3.org/2000/svg">
<path d="M20.6919 2.67C22.0487 -0.0657799 25.9509 -0.0657804 27.3077 2.67L31.7911 11.7102C32.3303 12.7974 33.3694 13.5503 34.5706 13.724L44.5659 15.1693C47.6001 15.6081 48.8089 19.3395 46.6084 21.474L39.3986 28.4676C38.5233 29.3167 38.1236 30.5432 38.3308 31.745L40.0359 41.6383C40.5554 44.6522 37.3954 46.9548 34.6855 45.5371L25.7114 40.8421C24.6393 40.2812 23.3603 40.2812 22.2881 40.8421L13.314 45.5371C10.6041 46.9548 7.44419 44.6522 7.96364 41.6383L9.66876 31.745C9.8759 30.5432 9.47626 29.3167 8.60091 28.4676L1.39117 21.474C-0.809345 19.3395 0.399459 15.6081 3.4336 15.1693L13.429 13.724C14.6301 13.5503 15.6692 12.7974 16.2085 11.7102L20.6919 2.67Z" fill="#DEDEDE" fill-opacity="0.16"/>
<path d="M14.7959 44.7618L13.3145 45.5371C12.8909 45.7587 12.4561 45.8892 12.0264 45.9405L11.7891 43.9551C11.9767 43.9327 12.1775 43.8741 12.3867 43.7647L13.8692 42.9903L14.7959 44.7618ZM35.6133 43.7647L35.7686 43.8379C35.922 43.9014 36.0703 43.9383 36.211 43.9551L35.9736 45.9405C35.5439 45.8892 35.1091 45.7587 34.6856 45.5371L33.2031 44.7618L34.1309 42.9903L35.6133 43.7647ZM10.1709 43.1778C10.4019 43.5309 10.766 43.7956 11.1729 43.9073L10.9072 44.8711L10.9082 44.8721L10.6436 45.834C9.76604 45.5931 8.99594 45.0323 8.49806 44.2705L10.1709 43.1778ZM38.6651 43.7246L39.501 44.2705C39.0029 45.0323 38.2332 45.5933 37.3555 45.834L37.0918 44.8721L36.8272 43.9073C37.234 43.7956 37.5982 43.5309 37.8291 43.1778L38.6651 43.7246ZM19.2822 42.4131L16.3194 43.9649L15.3926 42.1924L18.3555 40.6426L19.2822 42.4131ZM32.6074 42.1924L31.6797 43.9649L28.7168 42.4131L29.6445 40.6426L32.6074 42.1924ZM8.24513 40.0049L10.2168 40.3448L9.93459 41.9776C9.89447 42.2104 9.90136 42.42 9.93752 42.6055L7.97463 42.9873C7.89194 42.5628 7.88281 42.1094 7.96388 41.6387L8.24513 40.0049ZM39.7539 40.0049L40.0361 41.6387C40.1172 42.1095 40.1081 42.5628 40.0254 42.9873L38.0625 42.6055C38.0896 42.4665 38.1003 42.314 38.0869 42.1485L38.0654 41.9776L37.7832 40.3448L39.7539 40.0049ZM23.0723 38.4971L23.3985 40.4707C23.0159 40.5339 22.6406 40.6574 22.2881 40.8418L20.8057 41.6162L20.7451 41.5L20.3428 40.7315L19.8799 39.8448L21.3613 39.0703L21.5664 38.9678C22.049 38.7395 22.5561 38.5823 23.0723 38.4971ZM24.9277 38.4971C25.5176 38.5945 26.0955 38.7862 26.6387 39.0703L28.1201 39.8448L27.6563 40.7305L27.6572 40.7315L27.2549 41.5L27.1934 41.6162L25.7119 40.8418C25.3591 40.6573 24.9835 40.5348 24.6006 40.4717L24.6016 40.4707L24.9277 38.4971ZM9.09767 35.0586L11.0694 35.3985L10.5059 38.6651L8.53517 38.3252L8.5342 38.3243L9.09767 35.0586ZM38.9014 35.0586L39.4649 38.3243L37.4942 38.6651L36.9307 35.3985L38.9014 35.0586ZM11.6592 30.2666C11.738 30.7878 11.7447 31.323 11.6748 31.8565L11.6397 32.085L11.3584 33.7178L9.38771 33.378L9.38673 33.377L9.66896 31.7452C9.7371 31.3498 9.73822 30.9518 9.6797 30.5655H9.68166L11.6592 30.2666ZM38.3184 30.5655C38.2599 30.9518 38.2629 31.3499 38.3311 31.7452L38.6123 33.377L36.6416 33.7178L36.3604 32.085C36.2554 31.4762 36.2508 30.8622 36.3408 30.2666L38.3184 30.5655ZM9.99416 27.0323L10.1563 27.1963C10.5269 27.5862 10.8368 28.0228 11.0801 28.4903L9.30568 29.4131H9.30373C9.15777 29.1328 8.97671 28.8689 8.75978 28.6309L8.60158 28.4678L7.41017 27.3125L8.80373 25.877L9.99416 27.0323ZM40.5889 27.3125L39.3985 28.4678L39.2402 28.6309C39.0232 28.869 38.8413 29.1326 38.6953 29.4131L36.9199 28.4903C37.1979 27.9561 37.5626 27.4623 38.0059 27.0323L39.1963 25.877L40.5889 27.3125ZM7.57912 24.6895L6.18556 26.125L3.80568 23.8155L5.19826 22.3809L7.57912 24.6895ZM44.1934 23.8155L41.8135 26.125L40.4209 24.6895L42.8018 22.3809L44.1934 23.8155ZM2.41603 19.5293C2.49609 19.7007 2.61429 19.8733 2.7842 20.0381L3.97463 21.1934L2.58205 22.628L1.39162 21.4737C1.04779 21.1401 0.786927 20.7679 0.603531 20.375L2.41603 19.5293ZM47.3965 20.375C47.2131 20.7679 46.9522 21.1401 46.6084 21.4737L45.417 22.628L44.0254 21.1934L45.2158 20.0381L45.334 19.9131C45.4425 19.787 45.524 19.6578 45.584 19.5293L47.3965 20.375ZM1.87013 17.1202L2.65041 17.7461C2.38601 18.076 2.24679 18.5056 2.26759 18.9278L1.26857 18.9756L1.26955 18.9766L0.272477 19.0245C0.227958 18.1144 0.521852 17.207 1.09181 16.4961L1.87013 17.1202ZM46.9072 16.4961C47.4775 17.2071 47.7711 18.1142 47.7266 19.0245L46.7305 18.9766L45.7324 18.9278C45.7532 18.5056 45.614 18.076 45.3496 17.7461L46.9072 16.4961ZM5.084 14.9307L5.22755 15.92L5.37013 16.9102L3.71974 17.1485C3.48544 17.1824 3.2884 17.2538 3.12306 17.3457L2.15138 15.5977C2.53026 15.387 2.95958 15.2375 3.43361 15.169L5.08302 14.9297L5.084 14.9307ZM44.5664 15.169C45.0405 15.2375 45.4698 15.387 45.8486 15.5977L44.877 17.3457C44.753 17.2768 44.6112 17.2192 44.4492 17.1807L44.2803 17.1485L42.6299 16.9102L42.916 14.9307L44.5664 15.169ZM10.082 14.208L10.3682 16.1875L7.0674 16.6651L6.78127 14.6856L6.78029 14.6846L10.0811 14.2071L10.082 14.208ZM41.2188 14.6846L40.9326 16.6651L37.6319 16.1875L37.918 14.208L41.2188 14.6846ZM14.5498 13.3731L15.4424 15.1631C14.973 15.3974 14.4688 15.5681 13.9424 15.6661L13.7158 15.7032L12.0654 15.9424L11.7793 13.9629L11.7783 13.9619L13.4297 13.7237C13.8246 13.6665 14.201 13.5448 14.5488 13.3711L14.5498 13.3731ZM33.4502 13.3711C33.7983 13.545 34.1751 13.6665 34.5703 13.7237L36.2207 13.9619L36.1113 14.7237L35.9346 15.9424L34.2842 15.7032C33.6759 15.6152 33.094 15.4308 32.5576 15.1631L33.4502 13.3731V13.3711ZM16.9492 10.2178L18.7402 11.1065L18 12.5987C17.7269 13.1494 17.3707 13.645 16.9492 14.0713L15.5264 12.6651L15.5254 12.6641C15.7467 12.4402 15.9417 12.1882 16.1016 11.9102L16.209 11.71L16.9483 10.2168L16.9492 10.2178ZM31.791 11.71C31.9682 12.0673 32.2005 12.3877 32.4736 12.6641L31.0508 14.0713C30.682 13.6983 30.3625 13.2724 30.1055 12.8028L30 12.5987L29.2598 11.1065L31.0508 10.2178L31.791 11.71ZM20.0869 6.14164L20.9824 6.58597L19.502 9.57132L17.71 8.68265L19.1904 5.6973L20.0869 6.14164ZM30.2891 8.68265L28.4981 9.57132L27.0176 6.58597L28.8086 5.6973L30.2891 8.68265ZM21.4951 1.58793L22.8555 3.05375C22.7517 3.14998 22.6531 3.26687 22.5664 3.40824L22.4834 3.55863L21.7442 5.05082L19.9522 4.16214L20.6924 2.66996C20.862 2.32802 21.0714 2.02895 21.3106 1.7725L21.4951 1.58793ZM26.5049 1.58793C26.8217 1.88178 27.0956 2.24254 27.3076 2.66996L28.0469 4.16214L26.2559 5.05082L25.5166 3.55863C25.4118 3.34737 25.283 3.18213 25.1445 3.05375L26.5049 1.58793ZM22.6738 0.860387C23.5238 0.538943 24.4752 0.539158 25.3252 0.860387L24.6192 2.72953C24.225 2.58052 23.775 2.58052 23.3809 2.72953L22.6738 0.860387Z" fill="#BBBBBB" fill-opacity="0.55"/>
</svg>
