<svg width="16" height="16" viewBox="0 0 16 16" fill="none" xmlns="http://www.w3.org/2000/svg">
<g clip-path="url(#clip0_528_431)">
<path d="M14.4911 7.25H9.37567C5.44057 7.25 2.25001 10.44 2.25 14.375C2.25 14.7202 1.97018 15 1.625 15C1.27982 15 1 14.7202 1 14.375C1.00001 9.74954 4.75036 6 9.37567 6H14.4911L11.1831 2.69194C10.939 2.44786 10.939 2.05214 11.1831 1.80806C11.4271 1.56398 11.8229 1.56398 12.0669 1.80806L15.3813 5.1224C16.2111 5.95226 16.2111 7.29774 15.3813 8.1276L12.0669 11.4419C11.8229 11.686 11.4271 11.686 11.1831 11.4419C10.939 11.1979 10.939 10.8021 11.1831 10.5581L14.4911 7.25Z" fill="#1C1F21" fill-opacity="0.6"/>
</g>
<defs>
<clipPath id="clip0_528_431">
<rect width="16" height="16" fill="white"/>
</clipPath>
</defs>
</svg>
