<svg width="25" height="24" viewBox="0 0 25 24" fill="none" xmlns="http://www.w3.org/2000/svg">
<path d="M7.35829 14.4396C7.87953 15.5382 8.74023 16.4436 9.81703 17.0192C10.9783 17.6399 12.3191 17.8386 13.6105 17.5817C14.2886 17.4468 14.9309 17.1905 15.5092 16.8303L19.027 19.5759C17.727 20.6959 16.1529 21.4693 14.4511 21.8078C12.182 22.2591 9.8264 21.9096 7.78603 20.819C6.14124 19.9398 4.78344 18.6227 3.85487 17.0253L7.35829 14.4396ZM22.5001 12.2499H22.4967C22.4411 14.4745 21.6448 16.6198 20.2301 18.3437C20.0253 18.5932 19.8089 18.8313 19.5827 19.0583L16.142 16.3727C16.4163 16.1443 16.6704 15.8895 16.8996 15.6103C17.2982 15.1245 17.6104 14.5797 17.828 13.9999H12.5001V9.99993H22.5001V12.2499ZM7.01137 10.4955C6.72086 11.5553 6.74372 12.6743 7.07387 13.7175L3.49892 16.3559C3.41486 16.1822 3.33532 16.0057 3.26112 15.8266C2.37586 13.6892 2.25903 11.3109 2.93056 9.0971C3.07481 8.62157 3.25371 8.16001 3.46449 7.71551L7.01137 10.4955ZM6.94423 3.68524C8.86784 2.39994 11.1778 1.8213 13.4801 2.04803C15.7825 2.27479 17.9353 3.293 19.5712 4.92889L16.5246 7.97552C15.5935 7.04452 14.3683 6.46495 13.058 6.33587C11.7476 6.20682 10.4328 6.53625 9.33803 7.26776C8.42128 7.88033 7.70633 8.74343 7.27357 9.74774L3.81776 7.03924C4.58131 5.70298 5.64785 4.55148 6.94423 3.68524Z" fill="#F36A77"/>
</svg>
