<svg width="24" height="24" viewBox="0 0 24 24" fill="none" xmlns="http://www.w3.org/2000/svg">
<path d="M17 11.9998C19.7613 11.9998 21.9999 14.2384 22 16.9998C22 19.7612 19.7614 21.9997 17 21.9998C14.892 21.9998 13.0889 20.6953 12.3535 18.8496C12.1719 18.3936 12.5439 17.9429 13.0347 17.9429C13.3857 17.9429 13.6857 18.1814 13.8362 18.4985C14.3976 19.6817 15.6033 20.4998 17 20.4998C18.933 20.4997 20.5 18.9327 20.5 16.9998C20.4999 15.0668 18.9329 13.4998 17 13.4998C16.0463 13.4998 15.1817 13.8813 14.5505 14.5H15.25C15.6642 14.5 16 14.8358 16 15.25C16 15.6642 15.6642 16 15.25 16H13.45C12.6498 16 12.0001 15.3519 12 14.5505V12.75C12 12.3358 12.3358 12 12.75 12C13.1642 12 13.5 12.3358 13.5 12.75V13.4299C14.4018 12.5455 15.6371 11.9998 17 11.9998Z" fill="#F36A77"/>
<path d="M15 2C18.8659 2.00006 22 5.13404 22 9L21.9978 9.18066C21.9843 9.71378 21.911 10.232 21.7844 10.729C21.6725 11.1688 21.1546 11.3129 20.762 11.0945L20.7244 11.0723C20.4349 10.8899 20.293 10.5372 20.3677 10.2034C20.4444 9.86054 20.4891 9.50558 20.4983 9.14185L20.5 9C20.5 5.96247 18.0375 3.50006 15 3.5C11.9625 3.50006 9.5 5.96248 9.5 9L9.50269 9.17114C9.51486 9.56893 9.56912 9.95545 9.66113 10.3267L9.68555 10.4382C9.79077 11.0006 9.65682 11.6346 9.19897 12.0925L8.54321 12.7483C8.51561 12.7759 8.50002 12.8135 8.5 12.8525V12.981C8.5 13.8199 7.81985 14.4999 6.98096 14.5C6.70481 14.5001 6.48096 14.724 6.48096 15V16L6.479 16.0771C6.44012 16.844 5.82512 17.4591 5.05811 17.498L4.98096 17.5H4.25C3.8358 17.5001 3.5 17.8359 3.5 18.25V19.241L3.50171 19.3052C3.53502 19.9632 4.07737 20.4875 4.74365 20.491L5.23315 20.4934L5.3457 20.4912C5.90569 20.4661 6.43786 20.2328 6.83594 19.8347L8.8689 17.8015C9.27165 17.3987 10.0123 17.706 10.1145 18.2664C10.1532 18.4786 10.0925 18.699 9.93994 18.8516L7.89648 20.8953C7.18849 21.6032 6.22672 21.9982 5.22583 21.9932L4.73608 21.991C3.27025 21.9834 2.07687 20.8299 2.00366 19.3821L2 19.241V18.25C2 17.0074 3.00747 16.0001 4.25 16H4.98096V15C4.98096 13.8954 5.87653 13.0001 6.98096 13C6.98477 13 6.98681 12.9993 6.98804 12.9988C6.98976 12.998 6.99217 12.9966 6.99438 12.9944C6.99661 12.9921 6.99805 12.9898 6.99878 12.988C6.9993 12.9868 7 12.9848 7 12.981V12.8525C7.00002 12.4157 7.17357 11.9967 7.48242 11.6877L8.13818 11.032C8.18974 10.9804 8.23322 10.8801 8.21631 10.7468L8.20532 10.6875C8.08796 10.214 8.01887 9.72196 8.00342 9.21704L8 9C8 5.13404 11.1341 2.00006 15 2Z" fill="#F36A77"/>
<path fill-rule="evenodd" clip-rule="evenodd" d="M15.5 6C16.8807 6.00006 18 7.11933 18 8.5C18 9.88065 16.8806 10.9999 15.5 11C14.1194 10.9999 13 9.88065 13 8.5C13 7.11932 14.1193 6.00006 15.5 6ZM15.5 7.5C14.9478 7.50006 14.5 7.94775 14.5 8.5C14.5 9.05222 14.9478 9.49994 15.5 9.5C16.0522 9.49994 16.5 9.05222 16.5 8.5C16.5 7.94775 16.0522 7.50006 15.5 7.5Z" fill="#F36A77"/>
</svg>
