<svg width="24" height="24" viewBox="0 0 24 24" fill="none" xmlns="http://www.w3.org/2000/svg">
<path d="M15 2C18.866 2 22 5.13401 22 9L21.9978 9.18066C21.902 12.9632 18.8056 16 15 16C14.4087 16 13.8334 15.9263 13.2834 15.7876C13.1402 15.7515 13.0279 15.7844 12.9624 15.8328L12.9373 15.8542L7.89648 20.8953C7.18846 21.6033 6.22677 21.9982 5.22583 21.9932V21.9934L4.73608 21.991H4.73584C3.27001 21.9834 2.07686 20.8299 2.00366 19.3821L2 19.241V18.25C2 17.0074 3.00747 16.0001 4.25 16H4.98096V15C4.98096 13.8954 5.87653 13.0001 6.98096 13C6.98485 13 6.9868 12.9993 6.98804 12.9988C6.98977 12.998 6.99212 12.9966 6.99438 12.9944C6.99665 12.9921 6.99804 12.9898 6.99878 12.988C6.9993 12.9868 7 12.9849 7 12.981V12.8525C7.00002 12.4157 7.17357 11.9967 7.48242 11.6877L8.13818 11.032C8.18976 10.9804 8.23323 10.8801 8.21631 10.7468L8.20532 10.6875C8.08796 10.214 8.01887 9.72196 8.00342 9.21704L8 9C8 5.13404 11.1341 2.00006 15 2ZM15 3.5C11.9625 3.50006 9.5 5.96248 9.5 9L9.50269 9.17114C9.51485 9.56893 9.56912 9.95545 9.66113 10.3267L9.68555 10.4382C9.79079 11.0007 9.65687 11.6345 9.19897 12.0925L8.54321 12.7483C8.51561 12.7759 8.50002 12.8135 8.5 12.8525V12.981C8.5 13.8199 7.8199 14.5 6.98096 14.5C6.70481 14.5001 6.48096 14.724 6.48096 15V16L6.479 16.0771C6.44011 16.8441 5.82517 17.4592 5.05811 17.498L4.98096 17.5H4.25C3.8358 17.5001 3.5 17.8359 3.5 18.25V19.241L3.50171 19.3052C3.53502 19.9632 4.07736 20.4875 4.74365 20.491H4.74341L5.23315 20.4934H5.2334L5.3457 20.4912C5.90573 20.4661 6.43784 20.2328 6.83594 19.8347L11.8765 14.7937L11.9231 14.7488C12.4105 14.2957 13.0783 14.189 13.6504 14.3333C14.0814 14.442 14.5335 14.5 15 14.5C17.9901 14.5 20.4231 12.1139 20.4983 9.14185L20.5 9C20.5 5.96243 18.0376 3.5 15 3.5ZM15.5 6C16.8807 6 18 7.11929 18 8.5C18 9.88068 16.8807 11 15.5 11C14.1194 10.9999 13 9.88065 13 8.5C13 7.11932 14.1193 6.00006 15.5 6ZM15.5 7.5C14.9478 7.50006 14.5 7.94775 14.5 8.5C14.5 9.05222 14.9478 9.49994 15.5 9.5C16.0523 9.5 16.5 9.05226 16.5 8.5C16.5 7.94772 16.0523 7.5 15.5 7.5Z" fill="#F36A77"/>
</svg>
