<svg width="24" height="24" viewBox="0 0 24 24" fill="none" xmlns="http://www.w3.org/2000/svg">
<path fill-rule="evenodd" clip-rule="evenodd" d="M3 11C3 6.02944 7.02944 2 12 2C16.9706 2 21 6.02944 21 11V18C21 19.6569 19.6569 21 18 21C16.3431 21 15 19.6569 15 18V14C15 12.3431 16.3431 11 18 11C18.5464 11 19.0587 11.1461 19.5 11.4013V11C19.5 6.85786 16.1421 3.5 12 3.5C7.85786 3.5 4.5 6.85786 4.5 11V11.4013C4.94126 11.1461 5.45357 11 6 11C7.65685 11 9 12.3431 9 14V18C9 19.6569 7.65685 21 6 21C4.34315 21 3 19.6569 3 18V11ZM4.5 14V18C4.5 18.8284 5.17157 19.5 6 19.5C6.82843 19.5 7.5 18.8284 7.5 18V14C7.5 13.1716 6.82843 12.5 6 12.5C5.17157 12.5 4.5 13.1716 4.5 14ZM18 12.5C18.8284 12.5 19.5 13.1716 19.5 14V18C19.5 18.8284 18.8284 19.5 18 19.5C17.1716 19.5 16.5 18.8284 16.5 18V14C16.5 13.1716 17.1716 12.5 18 12.5Z" fill="#1C1F21" fill-opacity="0.84"/>
</svg>
