<svg width="48" height="48" viewBox="0 0 48 48" fill="none" xmlns="http://www.w3.org/2000/svg">
<path d="M24 2C36.1503 2 46 11.8497 46 24C46 36.1503 36.1503 46 24 46C11.8497 46 2 36.1503 2 24C2 11.8497 11.8497 2 24 2ZM24 7.35059C23.015 7.35059 22.216 8.14978 22.2158 9.13477V24C22.2159 24.4727 22.4041 24.9264 22.7383 25.2607L28.6846 31.207L28.8203 31.3291C29.5209 31.9005 30.554 31.8599 31.207 31.207C31.8599 30.5539 31.9015 29.5199 31.3301 28.8193L31.207 28.6846L25.7842 23.2607V9.13477C25.784 8.14978 24.985 7.35059 24 7.35059Z" fill="#DEDEDE" fill-opacity="0.16"/>
<path d="M22.5156 43.9463C23.0053 43.9822 23.5005 44 24 44V46C23.4518 46 22.9083 45.9789 22.3701 45.9395L22.5156 43.9463ZM25.5576 44.9434L25.6289 45.9395C25.091 45.9788 24.5479 46 24 46V44C24.4995 44 24.9947 43.9822 25.4844 43.9463L25.5576 44.9434ZM18.1162 43.1211C19.0505 43.4082 20.0143 43.629 21.002 43.7773L20.7051 45.7539C19.618 45.5906 18.5572 45.3475 17.5283 45.0312L18.1162 43.1211ZM30.4707 45.0312C29.4418 45.3474 28.381 45.5907 27.2939 45.7539L27.2188 45.249L26.998 43.7773C27.9857 43.629 28.9495 43.4082 29.8838 43.1211L30.4707 45.0312ZM14.0117 41.332C14.863 41.8238 15.7538 42.2545 16.6777 42.6182L16.3105 43.5479L16.3115 43.5488L16.0195 44.29L15.9453 44.4775C14.9282 44.0772 13.9482 43.6035 13.0117 43.0625L14.0117 41.332ZM33.9883 41.332L34.9873 43.0625C34.0508 43.6035 33.0708 44.0772 32.0537 44.4775L31.9805 44.29L31.6885 43.5488L31.3223 42.6182C32.2462 42.2545 33.137 41.8238 33.9883 41.332ZM10.4072 38.6709C11.1314 39.3422 11.9054 39.9604 12.7227 40.5195L12.1572 41.3438L12.1582 41.3447L11.75 41.9414L11.5928 42.1689C10.6942 41.5542 9.84377 40.8746 9.04785 40.1367L10.4072 38.6709ZM38.9512 40.1367C38.1552 40.8746 37.3048 41.5542 36.4062 42.1689L36.25 41.9414L35.8418 41.3447L35.2773 40.5195C36.0946 39.9604 36.8686 39.3422 37.5928 38.6709L38.9512 40.1367ZM7.48047 35.2773C8.03955 36.0946 8.65779 36.8686 9.3291 37.5928L7.8623 38.9512C7.12452 38.1552 6.44479 37.3048 5.83008 36.4062L7.48047 35.2773ZM42.1689 36.4062C41.5542 37.3048 40.8746 38.1552 40.1367 38.9512L38.6709 37.5928C39.3422 36.8686 39.9604 36.0946 40.5195 35.2773L42.1689 36.4062ZM5.38184 31.3223C5.74554 32.2462 6.17624 33.137 6.66797 33.9883L5.80176 34.4873L5.80273 34.4883L5.22949 34.8193L4.93652 34.9873C4.39561 34.0508 3.9218 33.0708 3.52148 32.0537L5.38184 31.3223ZM42.6182 31.3223L44.4775 32.0537C44.0772 33.0708 43.6035 34.0508 43.0625 34.9873L42.7705 34.8193L42.1973 34.4883L41.332 33.9883C41.8238 33.137 42.2545 32.2462 42.6182 31.3223ZM28.8203 31.3291C29.0508 31.5171 29.3176 31.6369 29.5947 31.6924V31.6943L29.2021 33.6553C28.614 33.5376 28.0466 33.2784 27.5566 32.8789L27.5186 32.8486L27.4834 32.8164L27.4385 32.7764L28.7754 31.2891L28.8203 31.3291ZM31.6504 30.4736L33.5605 31.0645C33.4059 31.5644 33.1459 32.0385 32.7832 32.4492L32.6211 32.6211C32.1732 33.0688 31.636 33.384 31.0645 33.5605L30.4736 31.6494L30.4727 31.6484C30.7412 31.5657 30.9945 31.4195 31.207 31.207C31.4195 30.9945 31.5655 30.7412 31.6484 30.4727L31.6504 30.4736ZM28.6846 31.207L28.7285 31.2471L27.3916 32.7344L27.3477 32.6943L27.3076 32.6592L27.2705 32.6211L26.2891 31.6396L27.7031 30.2256L28.6846 31.207ZM26.6934 29.2158L25.2793 30.6299L23.3154 28.666L24.7295 27.252L26.6934 29.2158ZM4.22266 26.998C4.37101 27.9857 4.5918 28.9495 4.87891 29.8838L2.96777 30.4707C2.65161 29.4418 2.40833 28.381 2.24512 27.2939L2.53125 27.252L4.22266 26.998ZM45.4688 27.252L45.7539 27.2939C45.5907 28.381 45.3474 29.4418 45.0312 30.4707L43.1211 29.8838C43.4082 28.9495 43.629 27.9857 43.7773 26.998L45.4688 27.252ZM32.8066 27.4707L32.8447 27.5117L32.8799 27.5557C33.28 28.0463 33.5389 28.6145 33.6562 29.2031L31.6953 29.5938H31.6934C31.638 29.3166 31.518 29.0498 31.3301 28.8193L31.2891 28.7744L32.7666 27.4268L32.8066 27.4707ZM32.6533 27.3027L32.7246 27.3809L31.248 28.7295L31.207 28.6846L29.416 26.8926L30.8311 25.4795L32.6533 27.3027ZM22.2158 24C22.2159 24.4727 22.4041 24.9264 22.7383 25.2607L23.7197 26.2422L22.3057 27.6562L21.3242 26.6748C20.6606 26.0106 20.2674 25.1237 20.2207 24.1885L20.2158 24V22.3643H22.2158V24ZM2 24C2 23.4518 2.02016 22.9083 2.05957 22.3701L3.05664 22.4424L4.05371 22.5156C4.01784 23.0053 4 23.5005 4 24C4 24.4995 4.01784 24.9947 4.05371 25.4844L3.05566 25.5566L3.05664 25.5576L2.05957 25.6289C2.02021 25.0911 2 24.5479 2 24ZM46 24C46 24.5479 45.9788 25.091 45.9395 25.6289L44.9434 25.5576L43.9463 25.4844C43.9822 24.9947 44 24.4995 44 24C44 23.5005 43.9822 23.0053 43.9463 22.5156L45.9395 22.3701C45.9789 22.9083 46 23.4518 46 24ZM27.7842 21.7061V22.4326L28.9893 23.6377L27.5742 25.0518L25.7842 23.2607V21.7061H27.7842ZM4.87891 18.1162C4.5918 19.0505 4.37101 20.0143 4.22266 21.002L2.24512 20.7051C2.40837 19.618 2.65157 18.5572 2.96777 17.5283L4.87891 18.1162ZM45.0312 17.5283C45.3475 18.5572 45.5906 19.618 45.7539 20.7051L43.7773 21.002C43.629 20.0143 43.4082 19.0505 43.1211 18.1162L45.0312 17.5283ZM22.2158 17.4092V20.6807H20.2158V17.4092H22.2158ZM27.7842 16.9971V20.1064H25.7842V16.9971H27.7842ZM6.66797 14.0117C6.17624 14.863 5.74554 15.7538 5.38184 16.6777L4.45117 16.3105L3.52148 15.9453C3.92183 14.9283 4.39558 13.9482 4.93652 13.0117L6.66797 14.0117ZM43.0625 13.0117C43.6035 13.9482 44.0772 14.9282 44.4775 15.9453L43.5488 16.3115L43.5479 16.3105L42.6182 16.6777C42.2545 15.7538 41.8238 14.863 41.332 14.0117L42.6445 13.2539L43.0625 13.0117ZM22.2158 12.4541V15.7256H20.2158V12.4541H22.2158ZM27.7842 12.2891V15.3984H25.7842V12.2891H27.7842ZM9.3291 10.4072C8.65779 11.1314 8.03956 11.9054 7.48047 12.7227L5.83008 11.5928C6.4448 10.6943 7.12451 9.84377 7.8623 9.04785L9.3291 10.4072ZM40.1367 9.04785C40.8746 9.84377 41.5542 10.6942 42.1689 11.5928L40.5195 12.7227C39.9604 11.9054 39.3422 11.1314 38.6709 10.4072L40.1367 9.04785ZM25.7842 9.13477C25.784 8.14978 24.985 7.35059 24 7.35059C23.015 7.35059 22.216 8.14978 22.2158 9.13477V10.7705H20.2158V9.13477L20.2207 8.93945C20.3225 6.94109 21.9754 5.35059 24 5.35059C26.09 5.35059 27.7838 7.04592 27.7842 9.13477V10.6895H25.7842V9.13477ZM12.7227 7.48047C11.9054 8.03955 11.1314 8.65779 10.4072 9.3291L9.04785 7.8623C9.84377 7.12451 10.6943 6.4448 11.5928 5.83008L12.7227 7.48047ZM36.4062 5.83008C37.3048 6.44479 38.1552 7.12452 38.9512 7.8623L37.5928 9.3291C36.8686 8.65779 36.0946 8.03956 35.2773 7.48047L36.2246 6.09668L36.4062 5.83008ZM16.6777 5.38184C15.7538 5.74554 14.863 6.17624 14.0117 6.66797L13.0117 4.93652C13.9482 4.39558 14.9283 3.92183 15.9453 3.52148L16.6777 5.38184ZM32.0537 3.52148C33.0708 3.9218 34.0508 4.39561 34.9873 4.93652L34.5156 5.75586L33.9883 6.66797C33.137 6.17624 32.2462 5.74554 31.3223 5.38184L31.7998 4.16992L32.0537 3.52148ZM21.002 4.22266C20.0143 4.37101 19.0505 4.5918 18.1162 4.87891L17.5283 2.96777C18.5572 2.65157 19.618 2.40837 20.7051 2.24512L21.002 4.22266ZM27.2939 2.24512C28.381 2.40833 29.4418 2.65161 30.4707 2.96777L29.8838 4.87891C28.9495 4.5918 27.9857 4.37101 26.998 4.22266L27.2939 2.24512ZM24 2C24.5479 2 25.0911 2.02021 25.6289 2.05957L25.5576 3.05664L25.5566 3.05566L25.4844 4.05371C24.9947 4.01784 24.4995 4 24 4C23.5005 4 23.0053 4.01784 22.5156 4.05371L22.4424 3.05566L22.3701 2.05957C22.9083 2.02016 23.4518 2 24 2Z" fill="#BBBBBB" fill-opacity="0.55"/>
</svg>
