<svg width="24" height="24" viewBox="0 0 24 24" fill="none" xmlns="http://www.w3.org/2000/svg">
<path fill-rule="evenodd" clip-rule="evenodd" d="M3.94273 3C2.87954 3 2 3.82155 2 4.87507V10.9868C2 16.4573 6.52336 21 12.0906 21C17.6191 21 22.1038 16.4573 22.1038 10.9868V4.87507C22.1038 3.81189 21.2629 3 20.2384 3H3.94273ZM7.75811 8.94835C7.45344 8.66773 6.97896 8.68722 6.69835 8.9919C6.41773 9.29657 6.43722 9.77104 6.7419 10.0517L11.4919 14.4267C11.779 14.6911 12.221 14.6911 12.5081 14.4267L17.2581 10.0517C17.5628 9.77104 17.5823 9.29657 17.3017 8.9919C17.021 8.68722 16.5466 8.66773 16.2419 8.94835L12 12.8554L7.75811 8.94835Z" fill="#1C1F21" fill-opacity="0.84"/>
</svg>
