<svg width="24" height="24" viewBox="0 0 24 24" fill="none" xmlns="http://www.w3.org/2000/svg">
<path d="M13.2395 2C14.5656 2 15.8375 2.5267 16.7751 3.46436L19.5356 6.22485L19.6223 6.31372C20.5057 7.24206 21 8.47587 21 9.7605V17C21 19.7614 18.7614 22 16 22H8C5.23858 22 3 19.7614 3 17V7C3 4.23858 5.23858 2 8 2H13.2395ZM8 3.5C6.067 3.5 4.5 5.067 4.5 7V17C4.5 18.933 6.067 20.5 8 20.5H16C17.933 20.5 19.5 18.933 19.5 17V10H18C15.2386 10 13 7.76142 13 5V3.5H8ZM12.2886 16.501C12.6849 16.5211 13 16.8487 13 17.25C13 17.6513 12.6849 17.9789 12.2886 17.999L12.25 18H7.75C7.33579 18 7 17.6642 7 17.25C7 16.8358 7.33579 16.5 7.75 16.5H12.25L12.2886 16.501ZM14.25 12.5C14.6642 12.5 15 12.8358 15 13.25C15 13.6642 14.6642 14 14.25 14H7.75C7.33579 14 7 13.6642 7 13.25C7 12.8358 7.33579 12.5 7.75 12.5H14.25ZM11.2886 8.50098C11.6849 8.52105 12 8.84872 12 9.25C12 9.65128 11.6849 9.97895 11.2886 9.99902L11.25 10H7.75C7.33579 10 7 9.66421 7 9.25C7 8.83579 7.33579 8.5 7.75 8.5H11.25L11.2886 8.50098ZM14.5 5C14.5 6.933 16.067 8.5 18 8.5H19.2651C19.1012 8.07528 18.8547 7.68298 18.5356 7.34766L18.4749 7.28564L15.7144 4.52515C15.3657 4.17654 14.9512 3.90882 14.5 3.73462V5Z" fill="black"/>
</svg>
