<svg width="48" height="48" viewBox="0 0 48 48" fill="none" xmlns="http://www.w3.org/2000/svg">
<path fill-rule="evenodd" clip-rule="evenodd" d="M37.7271 21.0686L26.2878 31.8349C25.7047 32.5078 24.7626 32.777 24.0897 32.777C23.2374 32.777 22.385 32.5078 21.7121 31.8349L10.4523 21.0686C9.28598 19.8125 9.10654 17.7041 10.4523 16.3583C11.7084 15.1919 13.8168 15.0125 15.0729 16.3583L24.0897 25.0162L33.286 16.3583C34.4523 15.0125 36.5607 15.1919 37.7271 16.3583C38.8935 17.7041 38.8935 19.8125 37.7271 21.0686ZM43.514 3.21436H4.62056C2.10841 3.21436 0 5.14333 0 7.70034V22.1003C0 35.1545 10.7664 46.0106 24.0897 46.0106C37.3234 46.0106 48 35.1545 48 22.1003V7.70034C47.9551 5.14333 45.9364 3.21436 43.514 3.21436Z" fill="#DEDEDE" fill-opacity="0.16"/>
<path d="M27.085 45.8218C26.104 45.9455 25.1045 46.0103 24.0898 46.0103C23.0711 46.0103 22.0672 45.9458 21.082 45.8228L21.3301 43.8394C22.2332 43.9522 23.1543 44.0103 24.0898 44.0103C25.0209 44.0103 25.9374 43.9518 26.8359 43.8384L27.085 45.8218ZM14.7236 41.9292C16.3702 42.7018 18.1277 43.2776 19.9658 43.6255L19.5938 45.5884C17.5876 45.2086 15.6702 44.5806 13.874 43.7378L14.7236 41.9292ZM33.4043 41.9194L34.1562 43.5063L34.2598 43.7241C32.4728 44.5715 30.5648 45.2036 28.5674 45.5854L28.1934 43.6235C30.0211 43.274 31.768 42.6954 33.4043 41.9194ZM9.01953 38.0728C10.3648 39.3246 11.8667 40.4126 13.4922 41.3032L12.5312 43.0562C10.7589 42.0851 9.12263 40.8993 7.65723 39.5356L9.01953 38.0728ZM39.0635 38.0522L40.1592 39.2153L40.4326 39.5063C38.9789 40.8743 37.3556 42.0648 35.5957 43.0396L34.627 41.2915C36.2396 40.3984 37.7297 39.3073 39.0635 38.0522ZM4.76367 32.6606C5.66585 34.2717 6.76715 35.7636 8.03613 37.1001L7.31055 37.7876L7.31152 37.7886L6.58691 38.4751C5.20454 37.0191 4.00368 35.3939 3.01953 33.6362L4.76367 32.6606ZM45.0215 33.605C44.0488 35.3623 42.8618 36.9881 41.4941 38.4448L40.7656 37.7622L40.0371 37.0776C41.2924 35.7406 42.3825 34.2487 43.2744 32.6372L45.0215 33.605ZM25.0566 32.6167L25.6748 34.519C25.1415 34.6924 24.5943 34.7768 24.0898 34.7769C23.5682 34.7769 23.0248 34.7094 22.4844 34.5493L23.0527 32.6313C23.3902 32.7314 23.7399 32.7769 24.0898 32.7769C24.3791 32.7768 24.7168 32.723 25.0557 32.6128L25.0566 32.6167ZM21.7119 31.8345C21.9721 32.0947 22.26 32.2937 22.5635 32.4409V32.4429L21.6904 34.2417C21.2026 34.0051 20.7429 33.6866 20.3301 33.2808L18.0781 31.1274L19.46 29.6821L21.7119 31.8345ZM28.5762 29.6821L29.9463 31.1382L27.7051 33.2466C27.31 33.6735 26.8595 33.988 26.418 34.2124L25.5117 32.4302L25.5107 32.4292C25.7981 32.2832 26.0688 32.0875 26.2881 31.8345L28.5752 29.6812L28.5762 29.6821ZM2.39551 26.2124C2.75078 28.0389 3.33795 29.7909 4.12695 31.4351L2.32422 32.2993C1.46294 30.5044 0.821978 28.5904 0.433594 26.5933L2.39551 26.2124ZM47.5723 26.5776C47.1895 28.5693 46.5574 30.4782 45.708 32.269L43.9023 31.4126C44.6806 29.7717 45.26 28.0233 45.6104 26.2007L47.5723 26.5776ZM35.666 25.7544L31.0908 30.061L29.7197 28.605L29.7188 28.604L34.2949 24.2983L35.666 25.7544ZM13.8291 24.2983L18.334 28.604L17.7588 29.2075L16.9521 30.0503L12.4482 25.7437L13.8291 24.2983ZM2 22.1001C2 23.0313 2.0598 23.95 2.17578 24.8521L1.18262 24.979L1.18359 24.98L0.191406 25.1069C0.0646303 24.1208 0 23.117 0 22.1001V19.2202H2V22.1001ZM48 22.1001C48 23.1133 47.9354 24.1135 47.8105 25.0962L45.8271 24.8442C45.9414 23.9447 46 23.0286 46 22.1001V19.2202H48V22.1001ZM24.5576 21.8286L25.9287 23.2847L24.0898 25.0161L22.2861 23.2837L22.4248 23.1401L23.6719 21.8423L24.1025 22.2563L24.5576 21.8286ZM38.5703 19.23L40.5527 19.4907C40.4231 20.4746 40.0297 21.4557 39.3359 22.269L39.1924 22.4292C39.1618 22.4621 39.1303 22.4941 39.0977 22.5249L36.8096 24.6782L35.4395 23.2222L35.4385 23.2212L37.7275 21.0688C38.2001 20.56 38.4768 19.9103 38.5664 19.229L38.5703 19.23ZM9.55859 19.2231C9.67053 19.9066 9.97824 20.5585 10.4521 21.0688L12.7041 23.2212L11.3223 24.6675L9.07031 22.5142L8.98633 22.4292C8.23617 21.6212 7.75549 20.6059 7.58203 19.5474L9.55566 19.2241L9.55859 19.2231ZM22.7695 20.9761L22.0762 21.6968L22.0771 21.6978L21.3838 22.4185L17.7783 18.9546L19.1631 17.5132L22.7695 20.9761ZM30.5264 18.9546L26.8486 22.4185L26.1631 21.6909L25.4775 20.9624L29.1562 17.4995L30.5264 18.9546ZM36.3359 13.4956C37.3003 13.6663 38.2399 14.1081 38.9932 14.8022L39.1416 14.9438L39.2383 15.0483L39.3711 15.2075C40.0179 16.0136 40.4027 16.9615 40.542 17.9175L39.5508 18.061L39.5518 18.062L38.5625 18.2056H38.5586C38.4611 17.5375 38.187 16.888 37.7275 16.3579C37.2588 15.8892 36.637 15.5833 35.9863 15.4683L36.3359 13.4956ZM12.2656 15.4663V15.4683C11.5976 15.5838 10.956 15.8901 10.4521 16.3579C9.92653 16.8835 9.63437 17.5259 9.54199 18.188L7.56055 17.9116C7.7096 16.8434 8.18776 15.7942 9.03809 14.9438L9.0918 14.8931C9.88865 14.1531 10.8873 13.674 11.9248 13.4946L12.2656 15.4663ZM13.5498 13.4614C14.5981 13.6014 15.6323 14.0684 16.458 14.9155L18.2617 16.647L17.5684 17.3677L17.5693 17.3687L16.876 18.0894L15.0732 16.3579C14.5755 15.8246 13.9435 15.5316 13.2842 15.4438L13.5498 13.4614ZM34.7275 13.4624L34.999 15.4438C34.3584 15.5316 33.7483 15.8248 33.2861 16.3579L31.4453 18.0894L30.0762 16.6333L31.8701 14.9438C32.6684 14.076 33.695 13.6039 34.7275 13.4624ZM48 17.7808H46V12.02H48V17.7808ZM2 17.7808H0V12.02H2V17.7808ZM47.1338 5.06689C47.6614 5.79706 47.9825 6.70046 48 7.70068V10.5806H46V7.73584L45.9883 7.51904C45.942 7.02251 45.7686 6.58948 45.5146 6.23779L47.1338 5.06689ZM1.68848 5.63525L2.48438 6.24072C2.18214 6.63889 2 7.13383 2 7.70068V10.5806H0V7.70068C0 6.6843 0.333384 5.76699 0.892578 5.03076L1.68848 5.63525ZM7.73242 3.21436V5.21436H4.62012C4.03142 5.21445 3.49277 5.3934 3.06055 5.69189L1.92383 4.04736C2.6876 3.51966 3.6218 3.21445 4.62012 3.21436H7.73242ZM43.5137 3.21436C44.4914 3.21436 45.4035 3.52883 46.1465 4.07178L44.9668 5.68604C44.5581 5.38737 44.057 5.21436 43.5137 5.21436H40.4023V3.21436H43.5137ZM15.5107 3.21436V5.21436H9.28809V3.21436H15.5107ZM23.2891 3.21436V5.21436H17.0664V3.21436H23.2891ZM31.0684 3.21436V5.21436H24.8447V3.21436H31.0684ZM38.8467 3.21436V5.21436H32.624V3.21436H38.8467Z" fill="#BBBBBB" fill-opacity="0.55"/>
</svg>
