<svg width="24" height="24" viewBox="0 0 24 24" fill="none" xmlns="http://www.w3.org/2000/svg">
<path fill-rule="evenodd" clip-rule="evenodd" d="M9.06719 19.7722C9.06719 21.0491 10.1022 22.0841 11.379 22.0841H12.6209C13.8977 22.0841 14.9327 21.049 14.9327 19.7722C14.9327 19.0921 15.719 18.7134 16.2508 19.1375C17.249 19.9335 18.7036 19.7696 19.4997 18.7713L20.2739 17.8004C21.07 16.8022 20.906 15.3476 19.9078 14.5515C19.376 14.1275 19.5701 13.2767 20.2332 13.1253C21.478 12.8411 22.2567 11.6016 21.9726 10.3568L21.6962 9.14617C21.412 7.90139 20.1725 7.12267 18.9277 7.40685C18.2646 7.55823 17.7205 6.87598 18.0156 6.26315C18.5695 5.11274 18.0859 3.73113 16.9355 3.17723L15.8161 2.63826C14.666 2.0845 13.2847 2.56795 12.7309 3.71807C12.4361 4.33053 11.5639 4.33052 11.269 3.71807C10.7152 2.56796 9.33395 2.08451 8.18383 2.63827L7.06444 3.17724C5.91403 3.73114 5.43047 5.11276 5.98437 6.26317C6.27944 6.876 5.73528 7.55826 5.07219 7.40688C3.8274 7.1227 2.58794 7.90142 2.30376 9.1462L2.02737 10.3569C1.74319 11.6017 2.52191 12.8411 3.76669 13.1253C4.42979 13.2767 4.62394 14.1275 4.09216 14.5515C3.0939 15.3476 2.92997 16.8022 3.72602 17.8004L4.50026 18.7714C5.29631 19.7696 6.7509 19.9336 7.74916 19.1375C8.28094 18.7134 9.06719 19.0921 9.06719 19.7722ZM11.379 20.5841C10.9307 20.5841 10.5672 20.2206 10.5672 19.7722C10.5672 17.8354 8.32825 16.7572 6.81396 17.9647C6.46339 18.2443 5.95258 18.1867 5.67303 17.8362L4.89879 16.8652C4.61924 16.5147 4.67681 16.0039 5.02737 15.7243C6.54167 14.5168 5.98879 12.094 4.10054 11.6629C3.66341 11.5631 3.38995 11.1279 3.48974 10.6907L3.76614 9.48005C3.86593 9.04292 4.3012 8.76945 4.73833 8.86925C6.62659 9.30033 8.1761 7.35752 7.33587 5.61244C7.14135 5.20845 7.31117 4.72326 7.71516 4.52874L8.83455 3.98977C9.23826 3.7954 9.7231 3.96509 9.91748 4.3688C10.7576 6.11363 13.2423 6.11361 14.0824 4.36879C14.2768 3.96508 14.7617 3.79539 15.1654 3.98977L16.2848 4.52873C16.6888 4.72325 16.8586 5.20843 16.6641 5.61242C15.8238 7.3575 17.3734 9.3003 19.2616 8.86922C19.6987 8.76943 20.134 9.04289 20.2338 9.48003L20.5102 10.6907C20.61 11.1278 20.3365 11.5631 19.8994 11.6629C18.0111 12.094 17.4583 14.5167 18.9726 15.7243C19.3231 16.0038 19.3807 16.5147 19.1011 16.8652L18.3269 17.8361C18.0473 18.1867 17.5365 18.2443 17.186 17.9647C15.6717 16.7572 13.4327 17.8354 13.4327 19.7722C13.4327 20.2206 13.0693 20.5841 12.6209 20.5841H11.379ZM12 14.0001C10.8954 14.0001 9.99991 13.1046 9.99991 12C9.99991 10.8954 10.8954 9.99994 12 9.99994C13.1046 9.99994 14 10.8954 14 12C14 13.1046 13.1046 14.0001 12 14.0001ZM8.49991 12C8.49991 13.933 10.0669 15.5001 12 15.5001C13.933 15.5001 15.5 13.933 15.5 12C15.5 10.067 13.933 8.49994 12 8.49994C10.0669 8.49994 8.49991 10.067 8.49991 12Z" fill="#1C1F21" fill-opacity="0.84"/>
</svg>
