<svg width="24" height="25" viewBox="0 0 24 25" fill="none" xmlns="http://www.w3.org/2000/svg">
<path fill-rule="evenodd" clip-rule="evenodd" d="M11.5 15.75V3.25H13V15.75C13 16.1642 12.6642 16.5 12.25 16.5C11.8358 16.5 11.5 16.1642 11.5 15.75Z" fill="#1C1F21" fill-opacity="0.84"/>
<path fill-rule="evenodd" clip-rule="evenodd" d="M13.8435 4.65413C12.9757 3.78641 11.5641 3.80209 10.7159 4.68888L7.29198 8.26842C7.00567 8.56775 6.53091 8.5783 6.23158 8.29199C5.93226 8.00567 5.92171 7.53092 6.20802 7.23159L9.63193 3.65205C11.0618 2.15718 13.4414 2.13074 14.9041 3.59347L18.5303 7.21968C18.8232 7.51257 18.8232 7.98744 18.5303 8.28034C18.2374 8.57323 17.7626 8.57323 17.4697 8.28034L13.8435 4.65413Z" fill="#1C1F21" fill-opacity="0.84"/>
<path fill-rule="evenodd" clip-rule="evenodd" d="M4.25 12.75C4.66421 12.75 5 13.0858 5 13.5V16.5C5 18.433 6.567 20 8.5 20H16C17.933 20 19.5 18.433 19.5 16.5V13.5C19.5 13.0858 19.8358 12.75 20.25 12.75C20.6642 12.75 21 13.0858 21 13.5V16.5C21 19.2614 18.7614 21.5 16 21.5H8.5C5.73858 21.5 3.5 19.2614 3.5 16.5V13.5C3.5 13.0858 3.83579 12.75 4.25 12.75Z" fill="#1C1F21" fill-opacity="0.84"/>
</svg>
