<svg width="48" height="48" viewBox="0 0 48 48" fill="none" xmlns="http://www.w3.org/2000/svg">
<path d="M24 2C36.1503 2 46 11.8497 46 24C46 36.1503 36.1503 46 24 46C11.8497 46 2 36.1503 2 24C2 11.8497 11.8497 2 24 2ZM24 7.33789C23.082 7.33789 22.3379 8.08201 22.3379 9V24C22.3379 24.6645 22.7341 25.2652 23.3447 25.5273C23.9552 25.7893 24.6628 25.6626 25.1445 25.2051L31.1445 19.5049L31.2617 19.3818C31.8109 18.7429 31.7978 17.7793 31.2051 17.1553C30.6123 16.5313 29.6507 16.4687 28.9844 16.9844L28.8555 17.0947L25.6621 20.1279V9C25.6621 8.08201 24.918 7.33789 24 7.33789Z" fill="#DEDEDE" fill-opacity="0.16"/>
<path d="M22.5156 43.9463C23.0053 43.9822 23.5005 44 24 44V46C23.4518 46 22.9083 45.9789 22.3701 45.9395L22.5156 43.9463ZM25.5576 44.9434L25.6289 45.9395C25.091 45.9788 24.5479 46 24 46V44C24.4995 44 24.9947 43.9822 25.4844 43.9463L25.5576 44.9434ZM18.1162 43.1211C19.0505 43.4082 20.0143 43.629 21.002 43.7773L20.7051 45.7539C19.618 45.5906 18.5572 45.3475 17.5283 45.0312L18.1162 43.1211ZM30.4707 45.0312C29.4418 45.3474 28.381 45.5907 27.2939 45.7539L27.2188 45.249L26.998 43.7773C27.9857 43.629 28.9495 43.4082 29.8838 43.1211L30.4707 45.0312ZM14.0117 41.332C14.863 41.8238 15.7538 42.2545 16.6777 42.6182L16.3105 43.5479L16.3115 43.5488L16.0195 44.29L15.9453 44.4775C14.9282 44.0772 13.9482 43.6035 13.0117 43.0625L14.0117 41.332ZM33.9883 41.332L34.9873 43.0625C34.0508 43.6035 33.0708 44.0772 32.0537 44.4775L31.9805 44.29L31.6885 43.5488L31.3223 42.6182C32.2462 42.2545 33.137 41.8238 33.9883 41.332ZM10.4072 38.6709C11.1314 39.3422 11.9054 39.9604 12.7227 40.5195L12.1572 41.3438L12.1582 41.3447L11.75 41.9414L11.5928 42.1689C10.6942 41.5542 9.84377 40.8746 9.04785 40.1367L10.4072 38.6709ZM38.9512 40.1367C38.1552 40.8746 37.3048 41.5542 36.4062 42.1689L36.25 41.9414L35.8418 41.3447L35.2773 40.5195C36.0946 39.9604 36.8686 39.3422 37.5928 38.6709L38.9512 40.1367ZM7.48047 35.2773C8.03955 36.0946 8.65779 36.8686 9.3291 37.5928L7.8623 38.9512C7.12452 38.1552 6.44479 37.3048 5.83008 36.4062L7.48047 35.2773ZM42.1689 36.4062C41.5542 37.3048 40.8746 38.1552 40.1367 38.9512L38.6709 37.5928C39.3422 36.8686 39.9604 36.0946 40.5195 35.2773L42.1689 36.4062ZM5.38184 31.3223C5.74554 32.2462 6.17624 33.137 6.66797 33.9883L5.80176 34.4873L5.80273 34.4883L5.22949 34.8193L4.93652 34.9873C4.39561 34.0508 3.9218 33.0708 3.52148 32.0537L5.38184 31.3223ZM44.4775 32.0537C44.0772 33.0708 43.6035 34.0508 43.0625 34.9873L42.7705 34.8193L42.1973 34.4883L41.332 33.9883C41.8238 33.137 42.2545 32.2462 42.6182 31.3223L44.4775 32.0537ZM4.22266 26.998C4.37101 27.9857 4.5918 28.9495 4.87891 29.8838L2.96777 30.4707C2.65161 29.4418 2.40833 28.381 2.24512 27.2939L2.27734 27.29L4.22266 26.998ZM45.7227 27.29L45.7539 27.2939C45.5907 28.381 45.3474 29.4418 45.0312 30.4707L43.1211 29.8838C43.4082 28.9495 43.629 27.9857 43.7773 26.998L45.7227 27.29ZM22.8193 25.1689C22.9672 25.3183 23.1442 25.4413 23.3447 25.5273C23.5451 25.6133 23.7559 25.6568 23.9658 25.6611L23.9248 27.6611C23.462 27.6517 22.9972 27.5542 22.5566 27.3652C22.1161 27.1761 21.7242 26.9061 21.3984 26.5771L22.8193 25.1689ZM27.5127 25.7139L26.5225 26.6553C26.1748 26.9854 25.7716 27.2377 25.3408 27.4072L24.6084 25.5469L24.6074 25.5449C24.803 25.4681 24.9863 25.3554 25.1445 25.2051L26.1348 24.2637L27.5127 25.7139ZM2 24C2 23.4518 2.02016 22.9083 2.05957 22.3701L3.05664 22.4424L4.05371 22.5156C4.01784 23.0053 4 23.5005 4 24C4 24.4995 4.01784 24.9947 4.05371 25.4844L3.05566 25.5566L3.05664 25.5576L2.05957 25.6289C2.02021 25.0911 2 24.5479 2 24ZM46 24C46 24.5479 45.9788 25.091 45.9395 25.6289L44.9434 25.5576L43.9463 25.4844C43.9822 24.9947 44 24.4995 44 24C44 23.5005 43.9822 23.0053 43.9463 22.5156L45.9395 22.3701C45.9789 22.9083 46 23.4518 46 24ZM22.3379 24C22.3379 24.2179 22.3812 24.4286 22.46 24.623L20.6064 25.376C20.4323 24.9466 20.3379 24.48 20.3379 24V22.3486H22.3379V24ZM29.1348 21.4141L29.8242 22.1387L30.5127 22.8643L28.5312 24.7461L27.1543 23.2959L27.1533 23.2949L29.1348 21.4141ZM31.1836 19.4639L32.6318 20.8438L32.5928 20.8838L32.5586 20.9209L32.5225 20.9551L31.5312 21.8955L30.1543 20.4463L30.1533 20.4453L31.1445 19.5049L31.1836 19.4639ZM4.87891 18.1162C4.5918 19.0505 4.37101 20.0143 4.22266 21.002L2.24512 20.7051C2.40837 19.618 2.65157 18.5572 2.96777 17.5283L4.87891 18.1162ZM45.0312 17.5283C45.3475 18.5572 45.5906 19.618 45.7539 20.7051L43.7773 21.002C43.629 20.0143 43.4082 19.0505 43.1211 18.1162L45.0312 17.5283ZM31.6211 18.6689L33.5713 19.1113C33.4428 19.6778 33.1774 20.2212 32.7783 20.6855L32.7451 20.7246L32.71 20.7607L32.6709 20.8018L31.2227 19.4229L31.2617 19.3818C31.4427 19.1713 31.5609 18.9252 31.6191 18.668L31.6211 18.6689ZM22.3379 17.3486V20.6514H20.3379V17.3486H22.3379ZM25.9229 18.291H27.5957L25.6621 20.1279V18.0166L25.9229 18.291ZM27.6621 12.7266V15.4834L27.6836 15.4648L27.7217 15.4326L27.7607 15.4023L27.9453 15.2686C28.3839 14.9709 28.8724 14.7792 29.373 14.6924L29.7148 16.6621C29.4552 16.7071 29.2037 16.8146 28.9844 16.9844L28.9414 17.0205L28.291 16.2607L27.6621 15.5254V15.6143L28.8975 17.0576L28.8555 17.0947L27.7998 18.0957L26.4238 16.6465L26.6816 16.4014H25.6621V12.7266H27.6621ZM31.1719 14.8301C31.652 14.992 32.1039 15.2561 32.4922 15.6172L32.6553 15.7773L32.8076 15.9482C33.1483 16.3546 33.3883 16.8198 33.5254 17.3076L31.5996 17.8486C31.5288 17.597 31.3977 17.358 31.2051 17.1553C31.0123 16.9524 30.7801 16.8102 30.5322 16.7266L30.5332 16.7256L31.1719 14.8301ZM6.66797 14.0117C6.17624 14.863 5.74554 15.7538 5.38184 16.6777L4.45117 16.3105L3.52148 15.9453C3.92183 14.9283 4.39558 13.9482 4.93652 13.0117L6.66797 14.0117ZM43.0625 13.0117C43.6035 13.9482 44.0772 14.9282 44.4775 15.9453L43.5488 16.3115L43.5479 16.3105L42.6182 16.6777C42.2545 15.7538 41.8238 14.863 41.332 14.0117L42.6445 13.2539L43.0625 13.0117ZM22.3379 12.3486V15.6514H20.3379V12.3486H22.3379ZM9.3291 10.4072C8.65779 11.1314 8.03956 11.9054 7.48047 12.7227L5.83008 11.5928C6.4448 10.6943 7.12451 9.84377 7.8623 9.04785L9.3291 10.4072ZM40.1367 9.04785C40.8746 9.84377 41.5542 10.6942 42.1689 11.5928L40.5195 12.7227C39.9604 11.9054 39.3422 11.1314 38.6709 10.4072L40.1367 9.04785ZM25.6621 9C25.6621 8.08201 24.918 7.33789 24 7.33789C23.082 7.33789 22.3379 8.08201 22.3379 9V10.6514H20.3379V9C20.3379 6.97744 21.9774 5.33789 24 5.33789C26.0226 5.33789 27.6621 6.97744 27.6621 9V10.8369H25.6621V9ZM12.7227 7.48047C11.9054 8.03955 11.1314 8.65779 10.4072 9.3291L9.04785 7.8623C9.84377 7.12451 10.6943 6.4448 11.5928 5.83008L12.7227 7.48047ZM36.4062 5.83008C37.3048 6.44479 38.1552 7.12452 38.9512 7.8623L37.5928 9.3291C36.8686 8.65779 36.0946 8.03956 35.2773 7.48047L36.0596 6.33789L36.4062 5.83008ZM16.6777 5.38184C15.7538 5.74554 14.863 6.17624 14.0117 6.66797L13.0117 4.93652C13.9482 4.39558 14.9283 3.92183 15.9453 3.52148L16.6777 5.38184ZM32.0537 3.52148C33.0708 3.9218 34.0508 4.39561 34.9873 4.93652L34.5156 5.75586L33.9883 6.66797C33.137 6.17624 32.2462 5.74554 31.3223 5.38184L31.7998 4.16992L32.0537 3.52148ZM21.002 4.22266C20.0143 4.37101 19.0505 4.5918 18.1162 4.87891L17.5283 2.96777C18.5572 2.65157 19.618 2.40837 20.7051 2.24512L21.002 4.22266ZM27.2939 2.24512C28.381 2.40833 29.4418 2.65161 30.4707 2.96777L29.8838 4.87891C28.9495 4.5918 27.9857 4.37101 26.998 4.22266L27.2939 2.24512ZM24 2C24.5479 2 25.0911 2.02021 25.6289 2.05957L25.5576 3.05664L25.5566 3.05566L25.4844 4.05371C24.9947 4.01784 24.4995 4 24 4C23.5005 4 23.0053 4.01784 22.5156 4.05371L22.4424 3.05566L22.3701 2.05957C22.9083 2.02016 23.4518 2 24 2Z" fill="#BBBBBB" fill-opacity="0.55"/>
</svg>
