<svg width="24" height="24" viewBox="0 0 24 24" fill="none" xmlns="http://www.w3.org/2000/svg">
<path d="M18 3.75C18 3.33579 17.6642 3 17.25 3C16.8358 3 16.5 3.33579 16.5 3.75L16.5 18.4393L13.7803 15.7197C13.4874 15.4268 13.0126 15.4268 12.7197 15.7197C12.4268 16.0126 12.4268 16.4874 12.7197 16.7803L16.7197 20.7803C16.8603 20.921 17.0511 21 17.25 21C17.4489 21 17.6397 20.921 17.7803 20.7803L21.7803 16.7803C22.0732 16.4874 22.0732 16.0126 21.7803 15.7197C21.4874 15.4268 21.0126 15.4268 20.7197 15.7197L18 18.4393V3.75Z" fill="#1C1F21" fill-opacity="0.84"/>
<path d="M2 6.75C2 6.33579 2.33579 6 2.75 6H10.25C10.6642 6 11 6.33579 11 6.75C11 7.16421 10.6642 7.5 10.25 7.5H2.75C2.33579 7.5 2 7.16421 2 6.75Z" fill="#1C1F21" fill-opacity="0.84"/>
<path d="M2 11.75C2 11.3358 2.33579 11 2.75 11H8.25C8.66421 11 9 11.3358 9 11.75C9 12.1642 8.66421 12.5 8.25 12.5H2.75C2.33579 12.5 2 12.1642 2 11.75Z" fill="#1C1F21" fill-opacity="0.84"/>
<path d="M2.75 16C2.33579 16 2 16.3358 2 16.75C2 17.1642 2.33579 17.5 2.75 17.5H6.25C6.66421 17.5 7 17.1642 7 16.75C7 16.3358 6.66421 16 6.25 16H2.75Z" fill="#1C1F21" fill-opacity="0.84"/>
</svg>
