<svg width="24" height="24" viewBox="0 0 24 24" fill="none" xmlns="http://www.w3.org/2000/svg">
<path d="M15.9889 7.11095C15.7448 6.86688 15.3491 6.86688 15.105 7.11095C14.8609 7.35503 14.8609 7.75076 15.105 7.99484L15.9889 8.87872C16.233 9.1228 16.6287 9.1228 16.8728 8.87872C17.1169 8.63464 17.1169 8.23891 16.8728 7.99484L15.9889 7.11095Z" fill="#1C1F21" fill-opacity="0.84"/>
<path fill-rule="evenodd" clip-rule="evenodd" d="M18.3326 3.98007C17.6875 3.3317 16.8105 2.96718 15.8959 2.96718L12.3504 2.96716C11.4386 2.96716 10.5642 3.3294 9.9195 3.97419L3.07546 10.8194C1.73323 12.1618 1.73332 14.3382 3.07567 15.6805L8.31786 20.9227C9.66102 22.2659 11.839 22.2651 13.1811 20.9209L20.0117 14.0798C20.6552 13.4353 21.0166 12.5617 21.0166 11.651V8.09635C21.0166 7.18764 20.6568 6.3159 20.0158 5.67174L18.3326 3.98007ZM15.8959 4.52968C16.3948 4.52968 16.8731 4.72851 17.225 5.08216L18.9082 6.77384C19.2578 7.1252 19.4541 7.60069 19.4541 8.09635V11.651C19.4541 12.1477 19.257 12.6242 18.906 12.9758L12.0754 19.8169C11.3433 20.5501 10.1553 20.5505 9.42272 19.8179L4.18052 14.5757C3.44833 13.8435 3.44828 12.6564 4.18041 11.9241L11.0244 5.07895C11.3761 4.72725 11.8531 4.52966 12.3504 4.52966L15.8959 4.52968Z" fill="#1C1F21" fill-opacity="0.84"/>
</svg>
