<svg width="48" height="48" viewBox="0 0 48 48" fill="none" xmlns="http://www.w3.org/2000/svg">
<path d="M34.7502 1.00237C36.8934 1.05583 38.9376 1.93315 40.4536 3.45667L44.5366 7.56098C46.0913 9.12359 46.9642 11.2383 46.9642 13.4426V22.0653C46.9642 24.2746 46.0875 26.3941 44.5265 27.9576L27.957 44.5531C24.7013 47.8138 19.4177 47.8158 16.1593 44.5579L3.44246 31.841C0.186104 28.5846 0.185786 23.3047 3.44187 20.048L20.0445 3.44245C21.6083 1.87861 23.7294 1.00011 25.941 1H34.5423L34.7502 1.00237ZM34.7679 11.0523C34.1758 10.4602 33.2155 10.4602 32.6234 11.0523C32.0315 11.6444 32.0314 12.6042 32.6234 13.1963L34.7679 15.3402C35.36 15.9323 36.3198 15.9323 36.9119 15.3402C37.5038 14.7481 37.5039 13.7883 36.9119 13.1963L34.7679 11.0523Z" fill="#DEDEDE" fill-opacity="0.16"/>
<path d="M24.1984 46.7188C22.7975 47.0898 21.3202 47.0898 19.9191 46.7197L20.4298 44.7891C21.4954 45.0704 22.6213 45.0702 23.6866 44.7881L24.1984 46.7188ZM17.5734 43.1436L17.88 43.4307C18.1936 43.7059 18.5269 43.9437 18.8741 44.1455L17.8693 45.874C17.3774 45.5881 16.908 45.2485 16.4708 44.8535L16.1593 44.5576L14.7599 43.1582L16.174 41.7441L17.5734 43.1436ZM28.6163 42.4766L29.3243 43.1826L27.9572 44.5527L27.6456 44.8496C27.2089 45.2447 26.7396 45.5839 26.2482 45.8701L25.7452 45.0078L25.2423 44.1436C25.7048 43.8742 26.1425 43.5398 26.5421 43.1396L27.9093 41.7705L28.6163 42.4766ZM33.4669 39.0342L30.7306 41.7734L29.3165 40.3613L32.0519 37.6211L33.4669 39.0342ZM14.7345 40.3047L13.3204 41.7188L10.5206 38.9189L11.9347 37.5049L14.7345 40.3047ZM37.6085 34.8848L34.8741 37.625L34.7286 37.4795L34.1661 36.9189L33.4591 36.2119L36.1945 33.4727L37.6085 34.8848ZM10.4952 36.0654L9.08118 37.4795L6.28235 34.6807L7.69642 33.2656L10.4952 36.0654ZM41.7521 30.7363L39.0158 33.4756L37.6007 32.0635L40.337 29.3232L41.7521 30.7363ZM3.85462 29.127C4.12351 29.5894 4.45697 30.0271 4.85657 30.4268L6.25599 31.8262L4.84192 33.2402L3.44251 31.8408C2.91956 31.3179 2.48109 30.7424 2.1261 30.1318L3.85462 29.127ZM44.9728 25.7471L45.6652 26.1484L45.8361 26.2471C45.4773 26.8658 45.0405 27.4432 44.5265 27.958L43.1593 29.3271L42.4513 28.6211L41.7433 27.9141L43.1115 26.5449L43.3937 26.2422C43.6651 25.9323 43.9041 25.5986 44.1085 25.2461L44.9728 25.7471ZM3.21106 24.3164C2.92966 25.3815 2.92955 26.5072 3.21106 27.5723L2.24329 27.8271L2.24427 27.8281L1.27942 28.082C0.909521 26.6821 0.909405 25.2056 1.27942 23.8057L3.21106 24.3164ZM46.9542 22.4785C46.9252 23.0644 46.8322 23.6411 46.6837 24.2012L44.7531 23.6895C44.8575 23.2953 44.9244 22.8899 44.9513 22.4785L44.964 22.0654V20.6416H46.964V22.0654L46.9542 22.4785ZM6.22669 20.0918L4.85657 21.4619C4.45696 21.8616 4.12348 22.2993 3.85462 22.7617L2.1261 21.7568C2.48098 21.1464 2.91879 20.5707 3.44153 20.0479L4.81165 18.6768L6.22669 20.0918ZM46.964 16.3301V19.1777H44.964V16.3301H46.964ZM10.3771 15.9404L7.63685 18.6816L6.92884 17.9736L6.22083 17.2666L8.96204 14.5254L10.3771 15.9404ZM34.0587 14.6318L34.7677 15.3398C34.9611 15.5332 35.1944 15.6624 35.4406 15.7295L34.9152 17.6611C34.4134 17.5245 33.9359 17.2742 33.5255 16.915L33.3536 16.7549L32.6456 16.0469L34.0587 14.6318ZM37.3029 14.668L39.2325 15.1934C39.0764 15.7667 38.7722 16.3078 38.3263 16.7539C37.8802 17.1999 37.3382 17.505 36.7648 17.6611L36.2394 15.7305L36.2384 15.7295C36.4379 15.6753 36.629 15.5814 36.797 15.4443L36.9122 15.3398C37.1055 15.1464 37.2339 14.9133 37.3009 14.667L37.3029 14.668ZM32.2335 12.5234C32.3005 12.7697 32.4298 13.0028 32.6232 13.1963L33.3312 13.9033L31.9171 15.3184L31.2091 14.6104C30.763 14.1642 30.4589 13.6222 30.3029 13.0488L32.2325 12.5244L32.2335 12.5234ZM46.964 14.8662H44.964V13.4424C44.964 12.8907 44.8927 12.3465 44.754 11.8223L46.6847 11.3105C46.8673 12.0006 46.964 12.7163 46.964 13.4424V14.8662ZM14.5284 11.7891L11.7872 14.5303L10.3722 13.1152L13.1134 10.374L14.5284 11.7891ZM38.3263 11.7822L38.4865 11.9541C38.8456 12.3644 39.0959 12.8411 39.2325 13.3428L37.3029 13.8682H37.3009C37.2466 13.6693 37.1525 13.4791 37.0158 13.3115L36.9122 13.1963L36.2033 12.4883L37.6183 11.0742L38.3263 11.7822ZM34.6212 8.73145C35.123 8.86807 35.6004 9.11821 36.0109 9.47754L36.1827 9.6377L36.8898 10.3457L35.4757 11.7598L34.7677 11.0527C34.5741 10.8592 34.3414 10.7291 34.0949 10.6621L34.0958 10.6611L34.6212 8.73145ZM33.296 10.6611C33.0497 10.7282 32.8166 10.8593 32.6232 11.0527C32.4301 11.246 32.3005 11.4786 32.2335 11.7246L30.3029 11.1992C30.4589 10.6259 30.7632 10.0848 31.2091 9.63867L31.381 9.47754C31.7915 9.11823 32.2688 8.86804 32.7706 8.73145L33.296 10.6611ZM17.2648 6.22266L18.6788 7.63672L15.9376 10.3789L14.5226 8.96387L17.2648 6.22266ZM43.1876 6.20605L44.5363 7.56055C45.0481 8.07503 45.4847 8.65088 45.8419 9.26855L44.9786 9.76855L44.9777 9.76758L44.1124 10.2686C43.9089 9.91662 43.6709 9.58311 43.4005 9.27344L43.1193 8.97168L41.7706 7.61621L43.1876 6.20605ZM22.7579 3.85742C22.405 4.06233 22.071 4.30207 21.7609 4.57422L21.4591 4.85645L20.088 6.22754L18.674 4.81348L20.045 3.44238C20.5597 2.92772 21.1353 2.48822 21.754 2.12891L22.7579 3.85742ZM38.7999 2.16992C39.3979 2.525 39.9543 2.95565 40.4533 3.45703L41.8009 4.81152L41.0929 5.51758L41.0919 5.5166L40.3839 6.22266L39.0363 4.86719C38.657 4.4861 38.2339 4.15853 37.7794 3.88867L38.7999 2.16992ZM34.7501 1.00195C35.4562 1.01956 36.1512 1.12829 36.8204 1.31836L36.2745 3.24121C35.7658 3.09668 35.2372 3.01534 34.7003 3.00195L34.6593 3.00098L34.6818 1.00195H34.7501ZM27.3615 1V3H25.9415C25.3879 3.00003 24.8415 3.07237 24.3156 3.21191L24.0382 2.16895L23.8029 1.28027C24.3634 1.13151 24.941 1.03987 25.5275 1.01074L25.9415 1H27.3615ZM34.6115 1L34.588 3.00098L34.5197 3H33.1222V1H34.6115ZM31.6622 1V3H28.8214V1H31.6622Z" fill="#BBBBBB" fill-opacity="0.55"/>
</svg>
