<svg width="24" height="24" viewBox="0 0 24 24" fill="none" xmlns="http://www.w3.org/2000/svg">
<path d="M12 3.5C10.6022 3.5 9.22591 3.84474 7.99313 4.50367C6.76035 5.1626 5.70911 6.1154 4.93251 7.27765C4.15592 8.43991 3.67794 9.77575 3.54093 11.1669C3.40392 12.558 3.6121 13.9614 4.14703 15.2528C4.68195 16.5442 5.52712 17.6838 6.60766 18.5706C7.6882 19.4574 8.97076 20.064 10.3417 20.3367C11.7127 20.6094 13.1298 20.5398 14.4674 20.134C15.8051 19.7282 17.022 18.9988 18.0104 18.0104C18.3033 17.7175 18.7782 17.7175 19.0711 18.0104C19.364 18.3033 19.364 18.7782 19.0711 19.0711C17.9082 20.2339 16.4765 21.092 14.9028 21.5694C13.3292 22.0468 11.662 22.1287 10.0491 21.8079C8.43619 21.487 6.92729 20.7734 5.65607 19.7301C4.38485 18.6868 3.39053 17.3462 2.76121 15.8268C2.13188 14.3075 1.88697 12.6564 2.04816 11.0198C2.20935 9.38324 2.77167 7.81166 3.68531 6.4443C4.59895 5.07694 5.83571 3.956 7.28604 3.18079C8.73636 2.40557 10.3555 2 12 2C12.4142 2 12.75 2.33579 12.75 2.75C12.75 3.16421 12.4142 3.5 12 3.5Z" fill="#1C1F21" fill-opacity="0.84"/>
<path d="M12 5C12.4142 5 12.75 5.33579 12.75 5.75V11.6893L15.0303 13.9697C15.3232 14.2626 15.3232 14.7374 15.0303 15.0303C14.7374 15.3232 14.2626 15.3232 13.9697 15.0303L11.4697 12.5303C11.329 12.3897 11.25 12.1989 11.25 12V5.75C11.25 5.33579 11.5858 5 12 5Z" fill="#1C1F21" fill-opacity="0.84"/>
<path d="M14.5218 2.32092C14.1209 2.21674 13.7115 2.45728 13.6073 2.85818C13.5031 3.25908 13.7437 3.66853 14.1446 3.7727C14.1824 3.78255 14.2202 3.79264 14.2579 3.80299C14.6573 3.91274 15.07 3.67792 15.1798 3.27851C15.2895 2.8791 15.0547 2.46634 14.6553 2.3566C14.6109 2.34441 14.5664 2.33251 14.5218 2.32092Z" fill="#1C1F21" fill-opacity="0.84"/>
<path d="M16.9416 3.30449C16.5816 3.09953 16.1237 3.22517 15.9187 3.58512C15.7138 3.94507 15.8394 4.40302 16.1994 4.60798C16.2333 4.6273 16.2671 4.64685 16.3007 4.66663C16.6578 4.87653 17.1175 4.75722 17.3274 4.40013C17.5373 4.04305 17.418 3.58341 17.0609 3.3735C17.0213 3.35023 16.9815 3.32723 16.9416 3.30449Z" fill="#1C1F21" fill-opacity="0.84"/>
<path d="M19.0222 4.88045C18.7273 4.58957 18.2525 4.59282 17.9616 4.88772C17.6707 5.18261 17.674 5.65747 17.9689 5.94835C17.9967 5.97579 18.0243 6.00341 18.0517 6.03122C18.3426 6.32611 18.8175 6.32936 19.1124 6.03848C19.4072 5.7476 19.4105 5.27274 19.1196 4.97785C19.0874 4.94516 19.0549 4.9127 19.0222 4.88045Z" fill="#1C1F21" fill-opacity="0.84"/>
<path d="M20.6266 6.9392C20.4167 6.58212 19.957 6.4628 19.5999 6.67271C19.2429 6.88262 19.1235 7.34226 19.3334 7.69935C19.3532 7.73299 19.3728 7.76678 19.3921 7.80071C19.5971 8.16066 20.055 8.2863 20.415 8.08134C20.7749 7.87638 20.9005 7.41842 20.6956 7.05848C20.6728 7.01854 20.6498 6.97879 20.6266 6.9392Z" fill="#1C1F21" fill-opacity="0.84"/>
<path d="M21.6435 9.34479C21.5337 8.94538 21.121 8.71056 20.7216 8.8203C20.3222 8.93005 20.0873 9.3428 20.1971 9.74221C20.2074 9.77987 20.2175 9.81764 20.2274 9.85551C20.3315 10.2564 20.741 10.497 21.1419 10.3928C21.5428 10.2886 21.7833 9.87915 21.6792 9.47825C21.6676 9.43364 21.6557 9.38915 21.6435 9.34479Z" fill="#1C1F21" fill-opacity="0.84"/>
<path d="M21.9998 11.9309C21.997 11.5167 21.6589 11.1832 21.2447 11.186C20.8305 11.1888 20.497 11.5269 20.4998 11.9411L20.4999 11.9635L20.5 12.0001L20.4998 12.059C20.497 12.4732 20.8305 12.8113 21.2447 12.8141C21.6589 12.8169 21.997 12.4834 21.9998 12.0692L21.9999 12.0383L22 12.0001L21.9998 11.9309Z" fill="#1C1F21" fill-opacity="0.84"/>
<path d="M21.6792 14.5219C21.7833 14.121 21.5428 13.7115 21.1419 13.6073C20.741 13.5032 20.3315 13.7437 20.2274 14.1446C20.2175 14.1825 20.2074 14.2202 20.1971 14.2579C20.0873 14.6573 20.3222 15.0701 20.7216 15.1798C21.121 15.2895 21.5337 15.0547 21.6435 14.6553C21.6557 14.611 21.6676 14.5665 21.6792 14.5219Z" fill="#1C1F21" fill-opacity="0.84"/>
<path d="M20.6956 16.9416C20.9005 16.5817 20.7749 16.1237 20.415 15.9188C20.055 15.7138 19.5971 15.8394 19.3921 16.1994C19.3728 16.2333 19.3532 16.2671 19.3334 16.3008C19.1235 16.6578 19.2429 17.1175 19.5999 17.3274C19.957 17.5373 20.4167 17.418 20.6266 17.0609C20.6498 17.0213 20.6728 16.9816 20.6956 16.9416Z" fill="#1C1F21" fill-opacity="0.84"/>
</svg>
