<svg width="24" height="24" viewBox="0 0 24 24" fill="none" xmlns="http://www.w3.org/2000/svg">
<path d="M12 3.5C10.0335 3.5 8.1278 4.18187 6.60767 5.42942C5.08753 6.67697 4.04699 8.41301 3.66334 10.3417C3.27969 12.2705 3.57668 14.2726 4.50369 16.0069C5.4307 17.7412 6.93038 19.1004 8.74721 19.853C10.564 20.6055 12.5856 20.7048 14.4674 20.134C16.3493 19.5631 17.975 18.3574 19.0675 16.7223C20.16 15.0872 20.6518 13.1239 20.4591 11.1669C20.2663 9.2098 19.401 7.38013 18.0104 5.98959C17.7175 5.6967 17.7175 5.22182 18.0104 4.92893C18.3033 4.63604 18.7782 4.63604 19.0711 4.92893C20.707 6.56486 21.7251 8.71741 21.9519 11.0198C22.1786 13.3222 21.6001 15.632 20.3147 17.5557C19.0294 19.4793 17.1168 20.8978 14.9029 21.5694C12.6889 22.241 10.3106 22.1242 8.17319 21.2388C6.03574 20.3534 4.27141 18.7543 3.18081 16.714C2.0902 14.6736 1.74081 12.3182 2.19216 10.0491C2.64351 7.78001 3.86768 5.73761 5.65607 4.2699C7.44447 2.8022 9.68645 2 12 2C12.4142 2 12.75 2.33579 12.75 2.75C12.75 3.16421 12.4142 3.5 12 3.5Z" fill="#1C1F21" fill-opacity="0.84"/>
<path d="M12 5C12.4142 5 12.75 5.33579 12.75 5.75V10.253L13.9834 9.08125C14.2837 8.79596 14.7585 8.80813 15.0437 9.10844C15.329 9.40874 15.3169 9.88346 15.0166 10.1687L12.5166 12.5437C12.2992 12.7503 11.9797 12.8075 11.7041 12.6892C11.4286 12.5709 11.25 12.2999 11.25 12V5.75C11.25 5.33579 11.5858 5 12 5Z" fill="#1C1F21" fill-opacity="0.84"/>
<path d="M14.5218 2.32092C14.1209 2.21674 13.7115 2.45728 13.6073 2.85818C13.5031 3.25908 13.7437 3.66853 14.1446 3.7727C14.1824 3.78255 14.2202 3.79264 14.2579 3.80299C14.6573 3.91274 15.07 3.67792 15.1798 3.27851C15.2895 2.8791 15.0547 2.46634 14.6553 2.3566C14.6109 2.34441 14.5664 2.33251 14.5218 2.32092Z" fill="#1C1F21" fill-opacity="0.84"/>
<path d="M16.9416 3.30449C16.5816 3.09953 16.1237 3.22517 15.9187 3.58512C15.7138 3.94507 15.8394 4.40302 16.1994 4.60798C16.2333 4.6273 16.2671 4.64685 16.3007 4.66663C16.6578 4.87653 17.1175 4.75722 17.3274 4.40013C17.5373 4.04305 17.418 3.58341 17.0609 3.3735C17.0213 3.35023 16.9815 3.32723 16.9416 3.30449Z" fill="#1C1F21" fill-opacity="0.84"/>
</svg>
