<svg width="24" height="24" viewBox="0 0 24 24" fill="none" xmlns="http://www.w3.org/2000/svg">
<path d="M10 9.75C10 9.33579 9.66422 9 9.25001 9C8.83579 9 8.50001 9.33579 8.50001 9.75V17.25C8.50001 17.6642 8.83579 18 9.25001 18C9.66422 18 10 17.6642 10 17.25V9.75Z" fill="#EE1025"/>
<path d="M15.5 9.75C15.5 9.33579 15.1642 9 14.75 9C14.3358 9 14 9.33579 14 9.75V17.25C14 17.6642 14.3358 18 14.75 18C15.1642 18 15.5 17.6642 15.5 17.25V9.75Z" fill="#EE1025"/>
<path fill-rule="evenodd" clip-rule="evenodd" d="M8.25001 5.00004V3.75C8.25001 2.7835 9.03351 2 10 2H14C14.9665 2 15.75 2.7835 15.75 3.75V5.0001L20.25 5.00013C20.6642 5.00013 21 5.33592 21 5.75014C21 6.16435 20.6642 6.50013 20.25 6.50013L19.75 6.50013V17C19.75 19.7614 17.5114 22 14.75 22H9.25001C6.48858 22 4.25001 19.7614 4.25001 17V6.50001L3.74999 6.50001C3.33578 6.5 3 6.16421 3 5.75C3 5.33579 3.33579 5 3.75001 5.00001L8.25001 5.00004ZM5.75001 6.50002V17C5.75001 18.933 7.31701 20.5 9.25001 20.5H14.75C16.683 20.5 18.25 18.933 18.25 17V6.50011L5.75001 6.50002ZM14.25 5.00008V3.75C14.25 3.61193 14.1381 3.5 14 3.5H10C9.86193 3.5 9.75001 3.61193 9.75001 3.75V5.00005L14.25 5.00008Z" fill="#EE1025"/>
</svg>
