<svg width="97" height="32" viewBox="0 0 97 32" fill="none" xmlns="http://www.w3.org/2000/svg">
<path fill-rule="evenodd" clip-rule="evenodd" d="M61.6098 15.08L67.7125 9.57185C68.2721 9.08223 68.3421 8.36529 67.9049 7.89316C67.4502 7.40354 66.7508 7.52595 66.2612 7.99808L57.9727 15.797V1.24835C57.9727 0.496438 57.6404 0.00682068 56.9585 0.00682068C56.2065 0.00682068 55.8393 0.496438 55.8393 1.24835V23.0713C55.8393 23.7882 56.259 24.2779 56.9585 24.2779C57.588 24.2779 57.9727 23.7882 57.9727 23.0713V18.35L60.106 16.4265L66.8033 23.8932C67.2229 24.3478 67.9574 24.5227 68.412 24.0855C68.9366 23.5959 68.7792 22.9314 68.377 22.4768L61.6098 15.08ZM95.2185 21.0953C94.8863 21.0953 94.5541 21.2876 94.3617 21.4625C93.9071 21.8647 93.3475 22.2494 92.5606 22.2494C91.2142 22.2494 90.4623 21.4275 90.4623 19.5565V9.44938L94.624 9.51932C95.2185 9.51932 95.6032 9.15211 95.6032 8.59254C95.6032 7.99801 95.201 7.64828 94.624 7.64828L90.4623 7.68325V4.29091C90.4623 3.62642 90.0076 3.17178 89.448 3.17178C88.8535 3.17178 88.3639 3.62642 88.3639 4.29091V7.68325L86.5803 7.64828C86.0207 7.64828 85.636 8.0155 85.636 8.59254C85.636 9.11714 86.0557 9.53681 86.5803 9.51932L88.3464 9.44938V19.6264C88.3464 22.8089 90.2874 24.2778 92.5082 24.2778C93.8896 24.2778 94.9388 23.7532 95.6557 23.0013C95.883 22.739 96.1103 22.4417 96.1103 22.057C96.1278 21.4975 95.7781 21.0953 95.2185 21.0953ZM21.2863 15.9125C21.2863 19.3923 24.1191 22.2425 27.4939 22.2425C30.9388 22.2425 33.7016 19.3923 33.7016 15.9125C33.7016 12.3977 30.9388 9.47752 27.4939 9.47752C24.1016 9.47752 21.2863 12.3977 21.2863 15.9125ZM19.1355 15.9125C19.1355 11.2961 22.8076 7.4491 27.5639 7.4491C31.9879 7.4491 35.9049 11.2961 35.9049 15.9125C35.9049 20.5289 32.0229 24.271 27.5639 24.271C22.8076 24.271 19.1355 20.5289 19.1355 15.9125ZM8.8885 22.2494C5.51363 22.2494 2.68085 19.3991 2.68085 15.9194C2.68085 12.4046 5.49615 9.48438 8.8885 9.48438C12.3333 9.48438 15.0961 12.4046 15.0961 15.9194C15.0961 19.3991 12.3333 22.2494 8.8885 22.2494ZM8.92347 7.45597C6.37046 7.45597 4.09724 8.88985 2.4885 10.8308L2.43604 8.52263C2.40107 7.71826 1.99888 7.31608 1.40434 7.31608C0.774836 7.31608 0.355164 7.80569 0.355164 8.50515V30.8877C0.355164 31.5521 0.809808 32.0068 1.43932 32.0068C2.1038 32.0068 2.4885 31.5172 2.4885 30.8527V21.0603C4.09724 22.9663 6.37046 24.2778 8.92347 24.2778C13.5748 24.2778 17.2645 20.5357 17.2645 15.9194C17.2645 11.303 13.5923 7.45597 8.92347 7.45597ZM77.4699 9.47752C74.6021 9.47752 72.0666 11.2786 71.577 14.7234H82.7858C82.6459 12.0305 80.5125 9.47752 77.4699 9.47752ZM69.3388 15.9125C69.3388 11.2961 72.8186 7.4491 77.4699 7.4491C81.7541 7.4491 84.9716 11.3136 84.9716 15.0207C84.9716 15.9649 84.3595 16.5595 83.2404 16.5595H71.5246C71.8043 19.9693 74.4972 22.26 77.5049 22.26C79.4459 22.26 80.8448 21.5606 82.2262 20.354C82.4885 20.1267 82.8207 19.9868 83.153 19.9868C83.765 19.9868 84.0972 20.4065 84.0972 20.9311C84.0972 21.2983 83.8349 21.648 83.5027 21.9802C82.0338 23.4141 79.7956 24.271 77.5049 24.271C72.8885 24.271 69.3388 20.5289 69.3388 15.9125ZM51.153 19.5846C51.3453 19.3223 51.6776 19.095 51.9748 19.095C52.5344 19.095 52.9541 19.4972 52.9716 20.0742C52.9716 20.3365 52.8317 20.6338 52.6043 20.9311C51.3278 22.6272 48.8972 24.271 46.0819 24.271C41.518 24.271 37.7759 20.4764 37.7759 15.9125C37.7759 11.2961 41.518 7.55402 46.0819 7.55402C48.7049 7.55402 50.9606 8.65566 52.3071 10.5966L52.3095 10.6005C52.5014 10.8969 52.7267 11.2452 52.7267 11.6109C52.7267 12.1005 52.2371 12.4677 51.7475 12.4677C51.3803 12.4677 51.083 12.2404 50.8907 12.013C49.7716 10.6666 48.4601 9.51249 46.0645 9.51249C42.777 9.51249 39.9617 11.9081 39.9617 15.9125C39.9617 19.6546 42.777 22.2425 46.0645 22.2425C48.2677 22.2425 50.2262 20.7912 51.153 19.5846Z" fill="#1C1F21"/>
</svg>
