<svg width="16" height="16" viewBox="0 0 16 16" fill="none" xmlns="http://www.w3.org/2000/svg">
<g clip-path="url(#clip0_528_451)">
<path d="M4.58283 5.28408C4.34035 5.06074 3.96274 5.07626 3.7394 5.31874C3.51606 5.56122 3.53158 5.93884 3.77406 6.16217L7.55444 9.6441C7.78295 9.85457 8.1347 9.85457 8.36321 9.6441L12.1436 6.16217C12.3861 5.93884 12.4016 5.56122 12.1782 5.31874C11.9549 5.07626 11.5773 5.06074 11.3348 5.28408L7.95882 8.39354L4.58283 5.28408Z" fill="#1C1F21" fill-opacity="0.6"/>
<path fill-rule="evenodd" clip-rule="evenodd" d="M14.5154 0.800049H1.54615C0.7 0.800049 0 1.4539 0 2.29236V7.06255C0 11.4164 3.6 15.0318 8.03077 15.0318C12.4308 15.0318 16 11.4164 16 7.06255V2.29236C16 1.4462 15.3308 0.800049 14.5154 0.800049ZM1.54615 1.99385H14.5154C14.6795 1.99385 14.8062 2.11358 14.8062 2.29236V7.06255C14.8062 10.7616 11.767 13.838 8.03077 13.838C4.25484 13.838 1.1938 10.7526 1.1938 7.06255V2.29236C1.1938 2.16387 1.3075 1.99385 1.54615 1.99385Z" fill="#1C1F21" fill-opacity="0.6"/>
</g>
<defs>
<clipPath id="clip0_528_451">
<rect width="16" height="16" fill="white"/>
</clipPath>
</defs>
</svg>
