<svg width="19" height="18" viewBox="0 0 19 18" fill="none" xmlns="http://www.w3.org/2000/svg">
<path fill-rule="evenodd" clip-rule="evenodd" d="M14.706 7.56611L10.247 11.7628C10.0197 12.0251 9.65246 12.13 9.39016 12.13C9.05792 12.13 8.72568 12.0251 8.46339 11.7628L4.07432 7.56611C3.61967 7.0765 3.54973 6.25464 4.07432 5.73005C4.56393 5.2754 5.38579 5.20546 5.87541 5.73005L9.39016 9.10491L12.9749 5.73005C13.4295 5.20546 14.2514 5.2754 14.706 5.73005C15.1607 6.25464 15.1607 7.0765 14.706 7.56611ZM16.9617 0.606552H1.80109C0.821858 0.606552 0 1.35846 0 2.35519V7.9683C0 13.0568 4.19672 17.2885 9.39016 17.2885C14.5486 17.2885 18.7104 13.0568 18.7104 7.9683V2.35519C18.6929 1.35846 17.906 0.606552 16.9617 0.606552Z" fill="#EF4056"/>
</svg>
